<?xml version="1.0" standalone="no"?>
<!DOCTYPE svg PUBLIC "-//W3C//DTD SVG 1.1//EN" "http://www.w3.org/Graphics/SVG/1.1/DTD/svg11.dtd" >
<!--
2013-9-30: Created.
-->
<svg>
<metadata>
Created by iconfont
</metadata>
<defs>

<font id="iconfont" horiz-adv-x="1024" >
  <font-face
    font-family="iconfont"
    font-weight="500"
    font-stretch="normal"
    units-per-em="1024"
    ascent="896"
    descent="-128"
  />
    <missing-glyph />
    
    <glyph glyph-name="googleplay" unicode="&#59016;" d="M207.7184 68.24448l316.85632 315.42784L207.7184 699.75552C199.936 687.1552 194.56 666.81344 194.56 637.50144v-507.04384c0-29.27104 5.376-49.65888 13.1584-62.21312z m450.67776 181.9648l-103.82848 104.15104L246.144 46.08h2.97984c26.42944 0 49.22368 9.61536 85.83168 29.34784l323.44064 174.78144z m38.96832 246.60992l-112.768-113.14688 112.80384-112.53248 68.41856 37.15072c25.15456 13.7472 63.62112 38.8864 63.62112 75.38176 0 37.15072-38.4256 62.28992-63.62112 76.07296l-68.41856 37.07392h-0.03584zM246.144 721.88416l308.42368-308.24448 103.82848 104.15104-323.44064 174.78144C298.34752 712.30464 275.5584 721.92 249.12384 721.92h-2.97984v-0.04096z"  horiz-adv-x="1024" />

    
    <glyph glyph-name="coingecko" unicode="&#59015;" d="M512 682.666667c-166.4 0-298.666667-132.266667-298.666667-298.666667s132.266667-298.666667 298.666667-298.666667 298.666667 132.266667 298.666667 298.666667-132.266667 298.666667-298.666667 298.666667z m-38.4-285.866667c-29.866667 0-51.2 21.333333-51.2 51.2 0 25.6 21.333333 46.933333 46.933333 46.933333 29.866667 0 51.2-21.333333 51.2-46.933333 4.266667-29.866667-17.066667-51.2-46.933333-51.2z m93.866667-268.8c-12.8-4.266667-12.8 0-12.8 12.8 0 29.866667 8.533333 55.466667 21.333333 81.066667 21.333333 42.666667 55.466667 81.066667 93.866667 115.2 0 0-89.6-51.2-145.066667 4.266666 51.2-29.866667 149.333333 0 162.133333 17.066667 0 0 12.8 12.8 17.066667 21.333333 21.333333 34.133333 12.8 59.733333-21.333333 81.066667-17.066667 8.533333-29.866667 12.8-46.933334 21.333333-8.533333 4.266667-21.333333 4.266667-29.866666 8.533334-12.8 4.266667-21.333333 8.533333-29.866667 21.333333-12.8 17.066667-34.133333 17.066667-55.466667 17.066667h-21.333333c-51.2 8.533333-93.866667-8.533333-132.266667-42.666667-25.6-21.333333-29.866667-51.2-34.133333-85.333333v-8.533334c-4.266667-38.4-4.266667-76.8-17.066667-110.933333 0-8.533333-4.266667-17.066667-8.533333-25.6 0-4.266667-4.266667-8.533333-4.266667-12.8-21.333333 29.866667-38.4 64-42.666666 102.4-17.066667 81.066667 12.8 162.133333 81.066666 230.4 76.8 72.533333 204.8 85.333333 294.4 34.133333C729.6 554.666667 772.266667 469.333333 768 362.666667c-8.533333-110.933333-93.866667-213.333333-200.533333-234.666667z m76.8 264.533333c0 4.266667 4.266667 8.533333 8.533333 12.8 4.266667 0 8.533333-4.266667 8.533333-8.533333 0-8.533333-4.266667-12.8-8.533333-12.8s-8.533333 4.266667-8.533333 8.533333zM512 443.733333c0-17.066667-17.066667-34.133333-34.133333-34.133333s-34.133333 17.066667-34.133334 34.133333c0 21.333333 17.066667 34.133333 34.133334 34.133334 17.066667 4.266667 34.133333-12.8 34.133333-34.133334z"  horiz-adv-x="1024" />

    
    <glyph glyph-name="feixiaohao" unicode="&#59012;" d="M229.973333 597.333333h358.656c32.768 0 59.306667-26.538667 59.306667-59.306666v-0.682667a59.306667 59.306667 0 0 0-59.306667-59.306667H229.973333A59.306667 59.306667 0 0 0 170.666667 537.301333V538.026667C170.666667 570.794667 197.205333 597.333333 229.973333 597.333333z m0-175.018666h120.021334c32.768 0 59.306667-26.538667 59.306666-59.306667v-0.682667a59.306667 59.306667 0 0 0-59.306666-59.306666H229.973333A59.306667 59.306667 0 0 0 170.666667 362.325333v0.682667c0 32.768 26.538667 59.306667 59.306666 59.306667zM230.314667 128a59.648 59.648 0 1 0 0 119.338667 59.648 59.648 0 0 0 0-119.338667z m533.333333 0H404.992a59.306667 59.306667 0 0 0-59.306667 59.306667v0.682666c0 32.768 26.538667 59.306667 59.306667 59.306667h358.656c32.768 0 59.306667-26.538667 59.306667-59.306667v-0.682666a59.306667 59.306667 0 0 0-59.306667-59.306667z m0 175.018667h-120.021333a59.306667 59.306667 0 0 0-59.306667 59.306666v0.682667c0 32.768 26.538667 59.306667 59.306667 59.306667h120.021333c32.768 0 59.306667-26.538667 59.306667-59.306667v-0.682667a59.306667 59.306667 0 0 0-59.306667-59.306666zM763.306667 597.333333a59.648 59.648 0 1 0 0-119.338666 59.648 59.648 0 0 0 0 119.338666z"  horiz-adv-x="1024" />

    
    <glyph glyph-name="mytoken" unicode="&#59013;" d="M512 682.666667a298.666667 298.666667 0 1 0 0-597.333334 298.666667 298.666667 0 0 0 0 597.333334zM374.186667 526.08c-38.101333 0-68.949333-29.781333-68.949334-66.517333v-168.149334c0-26.88 23.125333-48.725333 51.712-48.725333 28.586667 0 51.712 21.802667 51.712 48.725333v100.608a188.245333 188.245333 0 0 1 206.933334 0v-100.608c0-26.88 23.125333-48.725333 51.669333-48.725333 28.586667 0 51.712 21.802667 51.712 48.725333v167.850667c0 18.218667-7.68 35.626667-21.333333 48.170667a70.784 70.784 0 0 1-97.536-2.261334l-34.645334-33.962666c-29.226667-25.642667-73.728-24.533333-104.106666 0l-37.461334 34.474666A70.229333 70.229333 0 0 1 374.186667 526.08z"  horiz-adv-x="1024" />

    
    <glyph glyph-name="coinmarketcap" unicode="&#59014;" d="M725.077333 325.717333c-10.453333-6.570667-22.698667-7.381333-32-2.133333-11.861333 6.698667-18.346667 22.357333-18.346666 44.117333v65.194667c0 31.445333-12.501333 53.845333-33.28 59.904-35.242667 10.24-61.781333-32.853333-71.765334-49.066667l-62.165333-100.821333v123.221333c-0.682667 28.330667-9.898667 45.312-27.392 50.432-11.52 3.370667-28.885333 2.005333-45.653333-23.722666l-139.349334-223.701334A245.76 245.76 0 0 0 266.837333 384c0 134.741333 107.946667 244.352 240.682667 244.352 132.693333 0 240.725333-109.610667 240.725333-244.352l0.042667-0.64v-0.682667c1.237333-26.112-7.253333-46.848-23.210667-56.96zM801.706667 384v1.322667C800.938667 549.461333 669.269333 682.666667 507.52 682.666667 345.301333 682.666667 213.333333 548.693333 213.333333 384s131.968-298.666667 294.186667-298.666667c74.453333 0 145.493333 28.288 200.021333 79.658667a27.434667 27.434667 0 0 1-6.997333 44.544 26.410667 26.410667 0 0 1-29.397333-4.736 237.952 237.952 0 0 0-163.626667-65.152 238.592 238.592 0 0 0-179.114667 81.322667l125.653334 201.728v-93.013334c0-44.672 17.322667-59.093333 31.829333-63.317333 14.506667-4.224 36.778667-1.322667 60.074667 36.522667l69.12 112.042666c2.218667 3.626667 4.266667 6.741333 6.101333 9.386667v-56.618667c0-41.728 16.725333-75.136 45.866667-91.562666 26.282667-14.848 59.349333-13.525333 86.272 3.456 32.64 20.650667 50.218667 58.624 48.384 104.405333z"  horiz-adv-x="1024" />

    
    <glyph glyph-name="delete1" unicode="&#59010;" d="M819.2 597.333333h-115.2l-25.6 102.4c-8.533333 34.133333-38.4 55.466667-72.533333 55.466667H418.133333c-34.133333 4.266667-64-21.333333-72.533333-55.466667L320 597.333333H204.8c-21.333333 0-34.133333-12.8-34.133333-29.866666 0-17.066667 12.8-34.133333 34.133333-34.133334h21.333333V85.333333c0-42.666667 34.133333-76.8 76.8-76.8h426.666667c42.666667 0 76.8 34.133333 76.8 76.8V533.333333h21.333333c17.066667 0 34.133333 12.8 34.133334 34.133334-8.533333 17.066667-21.333333 29.866667-42.666667 29.866666zM405.333333 686.933333c0 4.266667 4.266667 8.533333 8.533334 8.533334h187.733333c4.266667 0 8.533333-4.266667 8.533333-8.533334L640 597.333333H384l21.333333 89.6zM733.866667 85.333333c0-4.266667-4.266667-8.533333-8.533334-8.533333H298.666667c-4.266667 0-8.533333 4.266667-8.533334 8.533333V533.333333h448V85.333333zM452.266667 192c12.8 0 25.6 12.8 25.6 25.6v140.8c0 12.8-12.8 25.6-25.6 25.6s-25.6-12.8-25.6-25.6v-140.8c0-12.8 12.8-25.6 25.6-25.6zM580.266667 192c12.8 0 25.6 12.8 25.6 25.6v140.8c0 12.8-12.8 25.6-25.6 25.6s-25.6-12.8-25.6-25.6v-140.8c0-12.8 12.8-25.6 25.6-25.6z"  horiz-adv-x="1024" />

    
    <glyph glyph-name="save" unicode="&#59011;" d="M588.8 512c17.066667 0 34.133333 12.8 34.133333 34.133333V610.133333c0 17.066667-12.8 34.133333-34.133333 34.133334s-34.133333-17.066667-34.133333-34.133334v-64c0-21.333333 12.8-34.133333 34.133333-34.133333zM810.666667 725.333333H213.333333c-25.6 0-42.666667-17.066667-42.666666-42.666666v-597.333334c0-25.6 17.066667-42.666667 42.666666-42.666666h597.333334c25.6 0 42.666667 17.066667 42.666666 42.666666V682.666667c0 25.6-17.066667 42.666667-42.666666 42.666666z m-149.333334-64v-213.333333h-298.666666v213.333333h298.666666z m128-554.666666h-554.666666v554.666666H298.666667V426.666667c0-25.6 17.066667-42.666667 42.666666-42.666667h341.333334c25.6 0 42.666667 17.066667 42.666666 42.666667V661.333333h64v-554.666666z"  horiz-adv-x="1024" />

    
    <glyph glyph-name="levelunlimited" unicode="&#59009;" d="M512 896C230.4 896 0 665.6 0 384s230.4-512 512-512 512 230.4 512 512S793.6 896 512 896z m0-938.666667C277.333333-42.666667 85.333333 149.333333 85.333333 384S277.333333 810.666667 512 810.666667s426.666667-192 426.666667-426.666667-192-426.666667-426.666667-426.666667zM716.8 520.533333l-268.8-268.8-140.8 140.8c-17.066667 17.066667-42.666667 17.066667-59.733333 0-17.066667-17.066667-17.066667-42.666667 0-59.733333l170.666666-170.666667c17.066667-17.066667 42.666667-17.066667 59.733334 0l298.666666 298.666667c17.066667 17.066667 17.066667 42.666667 0 59.733333-17.066667 17.066667-42.666667 17.066667-59.733333 0z"  horiz-adv-x="1024" />

    
    <glyph glyph-name="levelwithdraw" unicode="&#59006;" d="M42.666667 640a213.333333 213.333333 0 0 0 213.333333 213.333333h512a213.333333 213.333333 0 0 0 213.333333-213.333333v-11.221333a42.666667 42.666667 0 1 0-85.333333 0V640a128 128 0 0 1-128 128H256a128 128 0 0 1-128-128v-512a128 128 0 0 1 128-128h512a128 128 0 0 1 128 128v11.221333a42.666667 42.666667 0 0 0 85.333333 0V128a213.333333 213.333333 0 0 0-213.333333-213.333333H256a213.333333 213.333333 0 0 0-213.333333 213.333333V640zM759.168 499.498667a42.666667 42.666667 0 0 1 0-60.330667l76.501333-76.501333H469.333333a42.666667 42.666667 0 1 1 0-85.333334h469.333334a42.666667 42.666667 0 0 1 30.165333 72.832l-149.333333 149.333334a42.666667 42.666667 0 0 1-60.330667 0z"  horiz-adv-x="1024" />

    
    <glyph glyph-name="levelcheck" unicode="&#59007;" d="M237.098667 408.405333l162.133333-116.821333 398.08 336.512s24.618667 23.338667 49.194667 4.693333c4.906667-4.693333 14.72-18.730667-4.949334-42.112l-417.706666-443.989333s-34.432-42.069333-68.821334 0l-176.938666 214.997333s-19.626667 28.032 4.949333 46.72c9.813333 9.386667 29.44 18.688 54.058667 0z"  horiz-adv-x="1024" />

    
    <glyph glyph-name="levellimited" unicode="&#59008;" d="M512 896C230.4 896 0 665.6 0 384s230.4-512 512-512 512 230.4 512 512S793.6 896 512 896z m0-938.666667C277.333333-42.666667 85.333333 149.333333 85.333333 384S277.333333 810.666667 512 810.666667s426.666667-192 426.666667-426.666667-192-426.666667-426.666667-426.666667zM712.533333 584.533333c-17.066667 17.066667-42.666667 17.066667-59.733333 0L512 443.733333 371.2 584.533333c-17.066667 17.066667-42.666667 17.066667-59.733333 0-17.066667-17.066667-17.066667-42.666667 0-59.733333l140.8-140.8-140.8-140.8c-17.066667-17.066667-17.066667-42.666667 0-59.733333 17.066667-17.066667 42.666667-17.066667 59.733333 0l140.8 140.8 140.8-140.8c17.066667-17.066667 42.666667-17.066667 59.733333 0s17.066667 42.666667 0 59.733333L571.733333 384l140.8 140.8c17.066667 17.066667 17.066667 42.666667 0 59.733333z"  horiz-adv-x="1024" />

    
    <glyph glyph-name="triangle" unicode="&#59004;" d="M896 384L128-128V896l768-512z"  horiz-adv-x="1024" />

    
    <glyph glyph-name="suspended1" unicode="&#59005;" d="M512 768c-213.333333 0-384-170.666667-384-384s170.666667-384 384-384 384 170.666667 384 384-170.666667 384-384 384z m0-597.333333c-25.6 0-42.666667 17.066667-42.666667 42.666666s17.066667 42.666667 42.666667 42.666667 42.666667-17.066667 42.666667-42.666667-17.066667-42.666667-42.666667-42.666666z m42.666667 192c0-25.6-17.066667-42.666667-42.666667-42.666667s-42.666667 17.066667-42.666667 42.666667v213.333333c0 25.6 17.066667 42.666667 42.666667 42.666667s42.666667-17.066667 42.666667-42.666667v-213.333333z"  horiz-adv-x="1024" />

    
    <glyph glyph-name="delete" unicode="&#59001;" d="M512 768C300.8 768 128 595.2 128 384s172.8-384 384-384 384 172.8 384 384-172.8 384-384 384z m179.2-505.6c19.2-19.2 19.2-44.8 0-57.6-19.2-19.2-44.8-19.2-57.6 0L512 326.4l-121.6-121.6c-19.2-19.2-44.8-19.2-57.6 0-19.2 19.2-19.2 44.8 0 57.6L454.4 384 332.8 505.6c-19.2 19.2-19.2 44.8 0 57.6s44.8 19.2 57.6 0L512 441.6l121.6 121.6c19.2 19.2 44.8 19.2 57.6 0 19.2-19.2 19.2-44.8 0-57.6L569.6 384l121.6-121.6z"  horiz-adv-x="1024" />

    
    <glyph glyph-name="checkedRadio2" unicode="&#59003;" d="M785.92 512a48 48 0 0 1-67.84 0l-286.08-284.16-128 128a48 48 0 1 1-65.92-69.76L398.08 128a48 48 0 0 1 67.84 0l320 320a48 48 0 0 1 0 64z"  horiz-adv-x="1024" />

    
    <glyph glyph-name="edit2" unicode="&#59002;" d="M819.2 132.266667H285.866667c-17.066667 0-34.133333-12.8-34.133334-34.133334s12.8-34.133333 34.133334-34.133333h537.6c17.066667 0 34.133333 12.8 34.133333 34.133333s-17.066667 34.133333-38.4 34.133334zM290.133333 204.8h140.8c8.533333 0 17.066667 4.266667 25.6 8.533333l362.666667 273.066667c8.533333 8.533333 17.066667 17.066667 17.066667 29.866667 0 12.8 0 21.333333-8.533334 29.866666L729.6 682.666667c-8.533333 8.533333-17.066667 17.066667-29.866667 17.066666-12.8 0-21.333333 0-29.866666-8.533333l-362.666667-273.066667c-8.533333-4.266667-12.8-12.8-17.066667-21.333333l-38.4-136.533333c-4.266667-12.8 0-25.6 8.533334-38.4 4.266667-12.8 17.066667-17.066667 29.866666-17.066667z m401.066667 422.4L768 524.8l-51.2-38.4L640 588.8l51.2 38.4z m-341.333333-256l238.933333 179.2 76.8-102.4-238.933333-179.2H320l29.866667 102.4z"  horiz-adv-x="1024" />

    
    <glyph glyph-name="flod" unicode="&#58999;" d="M541.866667 588.8c-12.8-12.8-12.8-34.133333 0-46.933333l170.666666-170.666667-170.666666-170.666667c-12.8-12.8-12.8-34.133333 0-46.933333s34.133333-12.8 46.933333 0l192 192c12.8 12.8 12.8 34.133333 0 46.933333l-192 192c-12.8 17.066667-34.133333 17.066667-46.933333 4.266667zM243.2 588.8c-12.8-12.8-12.8-34.133333 0-46.933333l170.666667-170.666667-170.666667-170.666667c-12.8-12.8-12.8-34.133333 0-46.933333 12.8-12.8 34.133333-12.8 46.933333 0l192 192c12.8 12.8 12.8 34.133333 0 46.933333L290.133333 588.8c-12.8 12.8-34.133333 12.8-46.933333 0z"  horiz-adv-x="1024" />

    
    <glyph glyph-name="unflod" unicode="&#59000;" d="M482.133333 588.8c12.8-12.8 12.8-34.133333 0-46.933333l-170.666666-170.666667 170.666666-170.666667c12.8-12.8 12.8-34.133333 0-46.933333s-34.133333-12.8-46.933333 0l-192 192c-12.8 12.8-12.8 34.133333 0 46.933333l192 192c12.8 17.066667 34.133333 17.066667 46.933333 4.266667zM780.8 588.8c12.8-12.8 12.8-34.133333 0-46.933333l-170.666667-170.666667 170.666667-170.666667c12.8-12.8 12.8-34.133333 0-46.933333s-34.133333-12.8-46.933333 0l-192 192c-12.8 12.8-12.8 34.133333 0 46.933333l192 192c12.8 17.066667 34.133333 17.066667 46.933333 4.266667z"  horiz-adv-x="1024" />

    
    <glyph glyph-name="qq" unicode="&#58998;" d="M796.586667 268.88533299999995c-3.84 62.421333-46.805333 113.152-70.229334 140.501334 3.925333 7.765333 11.733333 52.650667-19.498666 83.882666v1.962667c0 120.96-85.845333 208.768-195.114667 208.768-109.269333 0-195.114667-87.808-195.114667-208.768v-1.962667c-31.232-31.232-23.424-76.117333-19.541333-83.882666-23.381333-27.306667-66.304-78.08-70.229333-140.501334 0-15.616 1.962667-39.04 9.770666-50.773333 9.728-13.653333 37.077333 1.962667 54.613334 42.965333 5.845333-19.498667 17.578667-48.768 44.885333-83.925333-46.805333-9.728-58.538667-56.576-42.922667-81.92 11.690667-17.578667 35.114667-31.232 80-31.232 76.117333 0 111.232 21.461333 126.848 35.114667 3.882667 3.925333 7.765333 3.925333 13.653334 3.925333 5.845333 0 9.728-1.962667 13.653333-3.925333 15.616-13.653333 48.768-35.114667 126.805333-35.114667 42.922667 0 68.309333 13.653333 80 31.232 15.616 25.344 1.962667 70.229333-42.922666 81.92 27.306667 37.12 39.04 66.346667 44.885333 83.925333 19.498667-40.96 44.885333-56.576 54.613333-42.922666 3.925333 11.690667 7.808 35.114667 5.888 50.730666z"  horiz-adv-x="1024" />

    
    <glyph glyph-name="testfight" unicode="&#58997;" d="M938.666667 366.933333c0 213.333333-153.6 388.266667-358.4 422.4-12.8 21.333333-38.4 38.4-68.266667 38.4-29.866667 0-55.466667-12.8-68.266667-38.4C238.933333 755.2 85.333333 580.266667 85.333333 366.933333c0-51.2 8.533333-98.133333 25.6-140.8-25.6-25.6-29.866667-64-12.8-98.133333 17.066667-29.866667 55.466667-46.933333 89.6-38.4C264.533333 0 384-59.733333 512-59.733333s247.466667 59.733333 324.266667 149.333333c34.133333-8.533333 72.533333 4.266667 89.6 38.4 17.066667 34.133333 12.8 72.533333-12.8 98.133333 17.066667 46.933333 25.6 93.866667 25.6 140.8zM187.733333 204.8c21.333333 12.8 51.2 29.866667 76.8 42.666667 29.866667 21.333333 76.8 38.4 115.2 51.2 4.266667 4.266667 12.8 4.266667 17.066667 4.266666 0-4.266667 4.266667-8.533333 8.533333-12.8-4.266667-4.266667-12.8-8.533333-17.066666-12.8-38.4-21.333333-76.8-46.933333-106.666667-64-21.333333-12.8-51.2-29.866667-76.8-42.666666-4.266667 12.8-8.533333 21.333333-17.066667 34.133333z m315.733334 294.4c-4.266667 38.4-12.8 89.6-12.8 123.733333V729.6h34.133333v-106.666667c0-29.866667-4.266667-76.8-8.533333-119.466666v-17.066667h-8.533334-4.266666v12.8z m-55.466667-140.8c0 34.133333 29.866667 64 64 64s64-29.866667 64-64-29.866667-64-64-64-64 25.6-64 64z m183.466667-51.2c4.266667 0 8.533333-4.266667 17.066666-4.266667 38.4-12.8 81.066667-34.133333 115.2-51.2 25.6-12.8 51.2-29.866667 76.8-42.666666-4.266667-12.8-12.8-21.333333-17.066666-29.866667-25.6 12.8-55.466667 29.866667-76.8 42.666667-25.6 17.066667-64 42.666667-98.133334 68.266666-4.266667 4.266667-12.8 8.533333-17.066666 12.8-4.266667-4.266667-4.266667 0 0 4.266667z m243.2 59.733333c0-38.4-4.266667-72.533333-17.066667-106.666666-21.333333 12.8-42.666667 25.6-68.266667 38.4-38.4 21.333333-85.333333 42.666667-123.733333 55.466666-12.8 4.266667-21.333333 8.533333-29.866667 12.8-4.266667 38.4-25.6 72.533333-55.466666 89.6 0 8.533333 4.266667 21.333333 4.266666 34.133334 4.266667 42.666667 8.533333 93.866667 8.533334 128V716.8c162.133333-34.133333 281.6-174.933333 281.6-349.866667zM430.933333 721.066667v-98.133334c0-42.666667 4.266667-93.866667 12.8-132.266666 0-8.533333 4.266667-17.066667 4.266667-21.333334-34.133333-21.333333-55.466667-55.466667-59.733333-93.866666-8.533333-4.266667-21.333333-8.533333-29.866667-12.8-38.4-17.066667-85.333333-34.133333-123.733333-55.466667-21.333333-12.8-46.933333-25.6-68.266667-38.4-8.533333 34.133333-17.066667 68.266667-17.066667 106.666667 0 166.4 119.466667 307.2 281.6 345.6zM512 4.266667c-102.4 0-196.266667 42.666667-264.533333 115.2 25.6 12.8 46.933333 25.6 68.266666 38.4 29.866667 17.066667 72.533333 46.933333 106.666667 72.533333 8.533333 4.266667 17.066667 12.8 25.6 17.066667 21.333333-12.8 42.666667-17.066667 68.266667-17.066667s46.933333 8.533333 68.266666 17.066667c8.533333-4.266667 17.066667-12.8 25.6-17.066667 34.133333-25.6 76.8-55.466667 106.666667-72.533333 21.333333-12.8 42.666667-25.6 68.266667-38.4-76.8-68.266667-170.666667-115.2-273.066667-115.2z"  horiz-adv-x="1024" />

    
    <glyph glyph-name="medium" unicode="&#58991;" d="M412.330667 545.706667v-391.04c0-5.546667-1.365333-10.24-4.181334-14.165334a13.994667 13.994667 0 0 0-12.16-5.845333 24.32 24.32 0 0 0-11.008 2.688l-154.965333 77.653333a28.330667 28.330667 0 0 0-11.861333 11.178667 29.397333 29.397333 0 0 0-4.821334 15.488V621.653333c0 4.437333 1.109333 8.234667 3.328 11.349334a11.136 11.136 0 0 0 9.685334 4.693333c3.114667 0 7.978667-1.706667 14.634666-5.034667l170.368-85.333333c0.64-0.64 0.981333-1.237333 0.981334-1.664z m21.333333-33.706667l178.005333-288.682667-178.005333 88.704V512zM810.666667 506.026667v-351.36c0-5.546667-1.578667-10.069333-4.693334-13.482667a16.213333 16.213333 0 0 0-12.629333-5.205333 31.488 31.488 0 0 0-15.658667 4.352l-147.029333 73.344L810.666667 505.984z m-0.981334 39.978666c0-0.682667-28.501333-47.274667-85.504-139.818666-57.002667-92.586667-90.410667-146.773333-100.181333-162.56l-130.005333 211.370666 107.989333 175.658667A18.901333 18.901333 0 0 0 619.349333 640c3.072 0 5.973333-0.682667 8.661334-2.005333l180.309333-90.026667c0.896-0.426667 1.365333-1.066667 1.365333-1.962667z"  horiz-adv-x="1024" />

    
    <glyph glyph-name="linkedin" unicode="&#58992;" d="M715.989333 640H265.386667C236.757333 640 213.333333 616.618667 213.333333 587.989333V137.386667C213.333333 108.757333 236.714667 85.333333 265.344 85.333333H715.946667c28.586667 0 52.010667 23.381333 52.010666 52.010667V587.946667C768 616.576 744.618667 640 715.989333 640zM421.333333 189.312H352v242.688h69.333333v-242.688z m-34.688 277.333333a34.645333 34.645333 0 1 0-0.042666 69.290667 34.645333 34.645333 0 0 0 0.085333-69.248z m277.333334-277.333333h-69.290667v138.666667a34.645333 34.645333 0 1 1-69.376 0v-138.666667h-69.290667v242.688h69.290667v-43.008c14.336 19.626667 36.181333 43.008 60.672 43.008 43.136 0 78.037333-38.826667 78.037333-86.656v-155.989333z"  horiz-adv-x="1024" />

    
    <glyph glyph-name="github" unicode="&#58993;" d="M213.333333 384c0 40.490667 7.893333 79.189333 23.637334 116.096a299.008 299.008 0 0 0 63.573333 95.402667 299.221333 299.221333 0 0 0 95.36 63.573333A292.992 292.992 0 0 0 512 682.666667a292.693333 292.693333 0 0 0 116.053333-23.637334 298.581333 298.581333 0 0 0 95.402667-63.573333 298.581333 298.581333 0 0 0 63.573333-95.402667c15.701333-36.650667 23.722667-76.117333 23.637334-116.053333a289.92 289.92 0 0 0-56.874667-175.232c-37.930667-51.925333-86.613333-88.021333-146.133333-108.202667-3.114667 0-5.461333 0.554667-6.997334 1.706667-1.536 1.152-2.432 2.346667-2.645333 3.541333a34.773333 34.773333 0 0 0-0.256 5.205334 4.437333 4.437333 0 0 0-0.597333 1.792v75.221333c0 23.722667-8.362667 43.946667-25.088 60.672 44.714667 7.765333 78.165333 24.362667 100.352 49.834667 22.144 25.514667 33.28 56.32 33.28 92.501333 0 33.834667-10.922667 63.189333-32.725334 88.064 7.808 24.917333 6.4 51.157333-4.053333 78.762667a89.216 89.216 0 0 1-35.584-5.546667c-12.842667-4.48-22.357333-8.661333-28.586667-12.544-6.229333-3.84-11.861333-7.594667-16.896-11.093333a283.946667 283.946667 0 0 1-75.52 9.386666c-27.861333 0-52.821333-3.157333-75.008-9.386666a380.842667 380.842667 0 0 1-14.890666 10.24c-5.632 3.669333-15.445333 8.149333-29.44 13.397333-13.994667 5.248-26.624 7.509333-37.930667 6.698667-10.88-27.989333-12.032-54.613333-3.498667-79.914667-21.376-24.874667-32.085333-54.229333-32.085333-88.064 0-36.181333 10.922667-66.901333 32.682667-92.16 21.76-25.301333 55.210667-42.026667 100.309333-50.176-11.52-11.093333-19.626667-25.301333-23.296-40.874667-33.066667-8.106667-56.192-2.304-69.418667 17.536-24.533333 35.754667-46.506667 48.64-65.92 38.485334-2.730667-2.688-2.346667-5.546667 1.152-8.448s8.746667-6.826667 15.786667-11.648c6.954667-4.906667 12.202667-10.24 15.701333-16.085334 0.426667-0.768 1.493333-3.584 3.242667-8.448 1.664-4.693333 3.413333-9.344 5.248-13.994666 1.706667-4.437333 5.034667-9.386667 9.898667-14.848 4.864-5.461333 10.496-10.026667 16.938666-13.738667 6.4-3.669333 15.232-6.4 26.538667-8.149333 11.264-1.706667 24.064-1.834667 38.485333-0.298667v-58.624a24.746667 24.746667 0 0 0-0.298666-2.944c-0.170667-1.322667-0.554667-2.304-1.152-2.858667a11.818667 11.818667 0 0 0-2.346667-1.792 7.338667 7.338667 0 0 0-3.797333-0.853333 37.12 37.12 0 0 0-5.802667 0.554667c-59.136 20.650667-107.264 56.746667-144.384 108.245333C231.936 261.418667 213.333333 319.445333 213.333333 384z"  horiz-adv-x="1024" />

    
    <glyph glyph-name="line" unicode="&#58994;" d="M720.384 427.562667c10.794667 0 17.962667-7.168 17.962667-17.962667s-7.168-17.962667-17.92-17.962667h-46.762667v-28.757333h46.72c10.794667 0 17.962667-7.168 17.962667-17.92 0-10.794667-7.168-18.005333-17.92-18.005333H648.533333c-10.794667 0-17.962667 7.210667-17.962666 17.962666V477.866667c0 10.794667 7.168 17.962667 17.962666 17.962666h71.850667c10.794667 0 17.962667-7.168 17.962667-17.962666s-7.168-17.962667-17.92-17.962667h-46.762667v-28.757333l46.72-3.584zM612.608 341.333333c0-10.794667-7.168-17.962667-17.962667-17.962666-7.210667 0-17.962667 3.584-21.546666 10.794666l-57.514667 82.602667V341.333333c0-10.794667-7.168-17.962667-17.92-17.962666-10.794667 0-18.005333 7.168-18.005333 17.962666V474.282667c0 10.752 7.168 17.92 17.962666 17.92 7.210667 0 17.962667-3.541333 21.546667-14.336 7.210667-7.168 61.098667-86.229333 61.098667-86.229334V474.282667c0 10.752 7.168 17.92 17.962666 17.92s17.962667-7.168 17.962667-17.92L612.608 341.333333z m-161.706667 0c0-10.794667-7.168-17.962667-17.92-17.962666-10.794667 0-18.005333 7.168-18.005333 17.962666V474.282667c0 10.752 7.210667 17.92 17.962667 17.92 10.794667 0 17.962667-7.168 17.962666-17.92V341.333333z m-53.888-3.584c0-10.794667-7.168-17.962667-17.92-17.962666H317.952c-10.794667 0-25.173333 3.584-25.173333 21.546666V477.866667c0 10.794667 7.210667 17.962667 17.962666 17.962666h3.584c10.794667 0 17.962667-7.168 17.962667-17.962666v-118.570667h46.72c10.794667 0 17.962667-7.168 17.962667-17.962667v-3.584zM512 682.666667c-186.837333 0-341.333333-122.154667-341.333333-273.066667 0-140.117333 132.949333-255.104 301.824-269.482667 7.168 0 10.752-3.584 14.378666-10.752 7.168-14.378667 3.584-39.552-3.626666-68.266666-7.168-28.757333 25.173333-14.378667 32.341333-10.794667 7.210667 3.584 150.912 86.229333 237.141333 165.290667C813.824 265.898667 853.333333 334.165333 853.333333 409.6 853.333333 560.512 698.837333 682.666667 512 682.666667z"  horiz-adv-x="1024" />

    
    <glyph glyph-name="discord" unicode="&#58995;" d="M604.8 273.749333c-34.432 0-62.293333 30.08-62.293333 67.2s27.861333 67.242667 62.293333 67.242667c34.389333 0 62.293333-30.122667 62.293333-67.242667 0-37.12-27.904-67.2-62.293333-67.2z m-228.266667 0c-34.389333 0-62.293333 30.08-62.293333 67.2s27.904 67.242667 62.293333 67.242667c34.432 0 62.293333-30.122667 62.293334-67.242667 0-37.12-27.861333-67.2-62.293334-67.2z m456.490667 110.976c-21.674667 102.954667-69.034667 190.037333-69.034667 190.037334C673.322667 642.688 588.458667 640 588.458667 640l-5.333334-8.96c99.157333-23.210667 161.450667-80.170667 161.450667-80.170667-81.066667 46.250667-191.36 62.293333-253.909333 62.293334-62.549333 0-172.842667-16.042667-253.909334-62.293334 0 0 62.293333 56.96 161.450667 80.213334L392.874667 640s-84.906667 2.688-175.530667-65.237333c0 0-47.36-87.04-69.034667-190.037334A1024.341333 1024.341333 0 0 1 128 214.784s32.384-45.781333 79.957333-68.309333c45.696-21.717333 79.957333-25.472 108.970667-25.898667l42.453333 50.901333s-71.04 20.992-108.544 71.893334c0 0 100.48-69.674667 239.829334-69.674667 139.349333 0 239.829333 69.674667 239.829333 69.674667-37.546667-50.901333-108.501333-71.893333-108.501333-71.893334l42.410666-50.901333c29.013333 0.426667 63.274667 4.181333 108.970667 25.898667C820.949333 168.96 853.333333 214.784 853.333333 214.784s-1.578667 80.853333-20.309333 169.941333z"  horiz-adv-x="1024" />

    
    <glyph glyph-name="biyong" unicode="&#58996;" d="M721.066667 362.666667c-4.266667 4.266667-4.266667 4.266667-4.266667 8.533333s0 4.266667 4.266667 8.533333c29.866667 25.6 46.933333 64 46.933333 102.4 0 76.8-64 136.533333-145.066667 136.533334h-34.133333V669.866667c0 8.533333-4.266667 12.8-12.8 12.8H554.666667c-8.533333 0-12.8-4.266667-12.8-12.8v-51.2h-89.6V669.866667c0 8.533333-4.266667 12.8-12.8 12.8h-21.333334c-8.533333 0-12.8-4.266667-12.8-12.8v-51.2H264.533333c-29.866667 0-51.2-25.6-51.2-51.2 0-21.333333 12.8-38.4 29.866667-46.933334V213.333333c-17.066667-4.266667-29.866667-21.333333-29.866667-42.666666 0-25.6 25.6-51.2 51.2-51.2h136.533334v-55.466667c0-8.533333 4.266667-12.8 12.8-12.8h17.066666c8.533333 0 12.8 4.266667 12.8 12.8v55.466667h89.6v-55.466667c0-8.533333 4.266667-12.8 12.8-12.8h17.066667c8.533333 0 12.8 4.266667 12.8 12.8v55.466667h34.133333c81.066667 0 145.066667 59.733333 145.066667 136.533333 12.8 42.666667-4.266667 81.066667-34.133333 106.666667z m-89.6-55.466667c0-29.866667-29.866667-59.733333-59.733334-59.733333H422.4l-42.666667-34.133334c-8.533333-8.533333-21.333333-4.266667-21.333333 8.533334v226.133333c0 29.866667 29.866667 59.733333 59.733333 59.733333h149.333334c34.133333 0 59.733333-25.6 59.733333-59.733333v-140.8zM422.4 375.466667c0-4.266667 4.266667-12.8 8.533333-17.066667 4.266667-4.266667 8.533333-4.266667 17.066667-4.266667 4.266667 0 12.8 4.266667 17.066667 4.266667 4.266667 4.266667 8.533333 8.533333 8.533333 17.066667 0 4.266667-4.266667 12.8-8.533333 17.066666-4.266667 4.266667-8.533333 4.266667-17.066667 4.266667-4.266667 0-12.8-4.266667-17.066667-4.266667-4.266667-4.266667-8.533333-8.533333-8.533333-17.066666zM541.866667 354.133333c4.266667 0 12.8 0 17.066666 4.266667 4.266667 4.266667 8.533333 8.533333 8.533334 12.8 0 4.266667 0 12.8-4.266667 17.066667-4.266667 4.266667-8.533333 8.533333-12.8 8.533333h-8.533333c-4.266667 0-4.266667 0-8.533334-4.266667-4.266667 0-4.266667-4.266667-8.533333-4.266666 0-4.266667-4.266667-4.266667-4.266667-8.533334v-8.533333c0-4.266667 0-4.266667 4.266667-8.533333 0-4.266667 4.266667-4.266667 4.266667-4.266667 8.533333 0 12.8 0 12.8-4.266667z"  horiz-adv-x="1024" />

    
    <glyph glyph-name="count" unicode="&#58990;" d="M725.333333 725.333333H298.666667C226.133333 725.333333 170.666667 669.866667 170.666667 597.333333v-426.666666c0-72.533333 55.466667-128 128-128h426.666666c72.533333 0 128 55.466667 128 128V597.333333c0 72.533333-55.466667 128-128 128z m64-554.666666c0-34.133333-29.866667-64-64-64H298.666667c-34.133333 0-64 29.866667-64 64V597.333333c0 34.133333 29.866667 64 64 64h426.666666c34.133333 0 64-29.866667 64-64v-426.666666zM413.866667 256l34.133333 34.133333c8.533333 8.533333 8.533333 21.333333 0 29.866667-8.533333 8.533333-21.333333 8.533333-29.866667 0l-34.133333-34.133333-34.133333 34.133333c-8.533333 8.533333-21.333333 8.533333-29.866667 0-8.533333-8.533333-8.533333-21.333333 0-29.866667l34.133333-34.133333-34.133333-34.133333c-8.533333-8.533333-8.533333-21.333333 0-29.866667 8.533333-8.533333 21.333333-8.533333 29.866667 0l34.133333 34.133333 34.133333-34.133333c8.533333-8.533333 21.333333-8.533333 29.866667 0 8.533333 8.533333 8.533333 21.333333 0 29.866667l-34.133333 34.133333zM708.266667 320h-136.533334c-12.8 0-21.333333-8.533333-21.333333-21.333333s8.533333-21.333333 21.333333-21.333334h136.533334c12.8 0 21.333333 8.533333 21.333333 21.333334s-8.533333 21.333333-21.333333 21.333333zM708.266667 234.666667h-136.533334c-12.8 0-21.333333-8.533333-21.333333-21.333334s8.533333-21.333333 21.333333-21.333333h136.533334c12.8 0 21.333333 8.533333 21.333333 21.333333s-8.533333 21.333333-21.333333 21.333334zM452.266667 533.333333H405.333333V580.266667c0 12.8-8.533333 21.333333-21.333333 21.333333s-21.333333-8.533333-21.333333-21.333333v-46.933334H315.733333c-12.8 0-21.333333-8.533333-21.333333-21.333333s8.533333-21.333333 21.333333-21.333333h46.933334v-46.933334c0-12.8 8.533333-21.333333 21.333333-21.333333s21.333333 8.533333 21.333333 21.333333V490.666667h46.933334c12.8 0 21.333333 8.533333 21.333333 21.333333s-8.533333 21.333333-21.333333 21.333333zM708.266667 533.333333h-136.533334c-12.8 0-21.333333-8.533333-21.333333-21.333333s8.533333-21.333333 21.333333-21.333333h136.533334c12.8 0 21.333333 8.533333 21.333333 21.333333s-8.533333 21.333333-21.333333 21.333333z"  horiz-adv-x="1024" />

    
    <glyph glyph-name="indicator" unicode="&#58989;" d="M460.714667 358.314667L348.501333 85.333333H170.666667V682.666667h682.666666v-597.333334h-333.994666v64H789.333333v469.333334h-554.666666v-469.333334h70.997333l138.154667 336.256 91.648-119.68 60.202666 147.285334 59.264-24.234667-102.4-250.538667-91.818666 119.893334z"  horiz-adv-x="1024" />

    
    <glyph glyph-name="contract" unicode="&#58988;" d="M810.666667-42.666667H213.333333c-46.933333 0-85.333333 38.4-85.333333 85.333334V725.333333c0 46.933333 38.4 85.333333 85.333333 85.333334h597.333334c46.933333 0 85.333333-38.4 85.333333-85.333334v-682.666666c0-46.933333-38.4-85.333333-85.333333-85.333334zM213.333333 746.666667c-12.8 0-21.333333-8.533333-21.333333-21.333334v-682.666666c0-12.8 8.533333-21.333333 21.333333-21.333334h597.333334c12.8 0 21.333333 8.533333 21.333333 21.333334V725.333333c0 12.8-8.533333 21.333333-21.333333 21.333334H213.333333zM648.533333 128H375.466667c-21.333333 0-34.133333 12.8-34.133334 34.133333s12.8 34.133333 34.133334 34.133334h277.333333c17.066667 0 34.133333-12.8 34.133333-34.133334s-17.066667-34.133333-38.4-34.133333z m-273.066666 34.133333h277.333333-277.333333zM618.666667 264.533333c-4.266667 0-8.533333 0-12.8 4.266667l-98.133334 42.666667-98.133333-42.666667c-8.533333-4.266667-17.066667-4.266667-25.6 4.266667-8.533333 4.266667-12.8 12.8-8.533333 25.6l12.8 110.933333L324.266667 469.333333c-4.266667 8.533333-8.533333 17.066667-4.266667 25.6 4.266667 8.533333 8.533333 12.8 17.066667 17.066667l93.866666 29.866667 59.733334 89.6c8.533333 12.8 34.133333 12.8 42.666666 0l59.733334-89.6 93.866666-29.866667c8.533333-4.266667 12.8-8.533333 17.066667-17.066667 4.266667-8.533333 0-17.066667-4.266667-25.6l-64-68.266666 12.8-110.933334c0-8.533333-4.266667-17.066667-8.533333-25.6h-21.333333zM392.533333 473.6l46.933334-46.933333c4.266667-4.266667 8.533333-12.8 8.533333-21.333334l-8.533333-76.8 68.266666 29.866667c8.533333 4.266667 12.8 4.266667 21.333334 0l68.266666-29.866667-8.533333 76.8c0 8.533333 0 12.8 8.533333 21.333334l46.933334 46.933333-64 21.333333c-4.266667 0-8.533333 4.266667-12.8 8.533334l-42.666667 64-42.666667-64c-4.266667-4.266667-8.533333-8.533333-12.8-8.533334l-8.533333-4.266666-68.266667-17.066667z"  horiz-adv-x="1024" />

    
    <glyph glyph-name="dark" unicode="&#58985;" d="M582.4 550.4c0 51.2-12.8 102.4-38.4 140.8 160-19.2 281.6-147.2 281.6-307.2 0-172.8-147.2-313.6-326.4-313.6-128 0-243.2 70.4-294.4 179.2 19.2-6.4 38.4-6.4 57.6-6.4 179.2 0 320 134.4 320 307.2z"  horiz-adv-x="1024" />

    
    <glyph glyph-name="whiite" unicode="&#58986;" d="M486.4 806.4v-134.4c0-38.4 57.6-38.4 57.6 0V806.4c-6.4 32-57.6 32-57.6 0zM486.4 96v-134.4c0-38.4 57.6-38.4 57.6 0v134.4c-6.4 38.4-57.6 38.4-57.6 0zM934.4 409.6h-140.8c-38.4 0-38.4-57.6 0-57.6h140.8c32 6.4 32 57.6 0 57.6zM236.8 409.6H89.6c-38.4 0-38.4-57.6 0-57.6h140.8c44.8 6.4 44.8 57.6 6.4 57.6zM787.2 704l-96-96c-25.6-25.6 12.8-64 38.4-38.4L832 659.2c25.6 25.6-19.2 70.4-44.8 44.8zM281.6 198.4L192 108.8c-25.6-25.6 12.8-64 38.4-38.4L320 160c25.6 25.6-12.8 70.4-38.4 38.4zM832 108.8L736 192c-25.6 25.6-64-12.8-38.4-38.4l96-83.2c19.2-32 64 12.8 38.4 38.4zM326.4 608L236.8 704c-25.6 25.6-70.4-19.2-44.8-44.8l96-96c25.6-19.2 64 19.2 38.4 44.8zM320 384c0-25.6 6.4-51.2 12.8-70.4 12.8-25.6 25.6-44.8 44.8-64 19.2-19.2 38.4-32 64-44.8 19.2-6.4 44.8-12.8 70.4-12.8 25.6 0 51.2 6.4 70.4 12.8 25.6 12.8 44.8 25.6 64 44.8s32 38.4 44.8 64c6.4 19.2 12.8 44.8 12.8 70.4s-6.4 51.2-12.8 70.4c-12.8 25.6-25.6 44.8-44.8 64s-38.4 32-64 44.8C563.2 569.6 537.6 576 512 576s-51.2-6.4-70.4-12.8c-25.6-12.8-44.8-25.6-64-44.8-19.2-19.2-32-38.4-44.8-64-6.4-19.2-12.8-44.8-12.8-70.4z"  horiz-adv-x="1024" />

    
    <glyph glyph-name="cnyswitch" unicode="&#58987;" d="M345.6 413.866667h341.333333c4.266667 4.266667 12.8 8.533333 12.8 17.066666 4.266667 12.8 0 25.6-4.266666 34.133334l-72.533334 85.333333c-8.533333 12.8-25.6 12.8-34.133333 0s-8.533333-29.866667 0-42.666667l29.866667-34.133333H345.6c-12.8 0-25.6-12.8-25.6-29.866667 0-17.066667 12.8-29.866667 25.6-29.866666zM678.4 341.333333H345.6c-12.8 0-25.6-12.8-25.6-29.866666 0-8.533333 4.266667-17.066667 8.533333-21.333334l68.266667-81.066666c8.533333-12.8 25.6-8.533333 34.133333 0 8.533333 12.8 8.533333 29.866667 0 42.666666l-29.866666 34.133334h277.333333c12.8 0 25.6 12.8 25.6 29.866666 0 12.8-12.8 25.6-25.6 25.6zM512 725.333333c-187.733333 0-341.333333-153.6-341.333333-341.333333s153.6-341.333333 341.333333-341.333333 341.333333 153.6 341.333333 341.333333-153.6 341.333333-341.333333 341.333333z m0-622.933333c-157.866667 0-281.6 128-281.6 281.6s128 281.6 281.6 281.6 281.6-128 281.6-281.6-123.733333-281.6-281.6-281.6z"  horiz-adv-x="1024" />

    
    <glyph glyph-name="download1" unicode="&#58966;" d="M629.162667 468.693333V647.850667a24.277333 24.277333 0 0 1-14.421334 22.272 23.296 23.296 0 0 1-9.045333 1.877333H448a23.893333 23.893333 0 0 1-23.466667-24.106667v-179.2h-113.066666c-12.885333 0-16-7.338667-6.656-16.64l205.269333-203.861333a23.765333 23.765333 0 0 1 33.578667 0l205.226666 203.861333c9.301333 9.173333 6.101333 16.64-6.656 16.64h-113.024zM288 107.776a11.904 11.904 0 0 1 11.818667-11.776h454.058666a11.818667 11.818667 0 0 1 11.776 11.818667v44.16a11.861333 11.861333 0 0 1-11.776 11.776H299.818667a11.818667 11.818667 0 0 1-11.818667-11.776v-44.202667z"  horiz-adv-x="1024" />

    
    <glyph glyph-name="kline" unicode="&#58969;" d="M554.666667 629.333333a32 32 0 0 0 32 32h213.333333a32 32 0 0 0 32-32v-512a32 32 0 0 0-32-32h-213.333333a32 32 0 0 0-32 32v512z m64-32v-448H768V597.333333h-149.333333zM693.333333 810.666667a32 32 0 0 0 32-32v-128a32 32 0 0 0-64 0v128a32 32 0 0 0 32 32zM693.333333 128a32 32 0 0 0 32-32v-128a32 32 0 0 0-64 0v128a32 32 0 0 0 32 32zM170.666667 629.333333a32 32 0 0 0 32 32h213.333333a32 32 0 0 0 32-32v-384a32 32 0 0 0-32-32h-213.333333a32 32 0 0 0-32 32v384zM234.666667 597.333333v-320H384V597.333333H234.666667zM309.333333 810.666667a32 32 0 0 0 32-32v-128a32 32 0 0 0-64 0v128A32 32 0 0 0 309.333333 810.666667zM309.333333 256a32 32 0 0 0 32-32v-85.333333a32 32 0 0 0-64 0v85.333333a32 32 0 0 0 32 32z"  horiz-adv-x="1024" />

    
    <glyph glyph-name="Sort_left" unicode="&#58970;" d="M656 669.184A32 32 0 0 0 674.944 640v-519.232a32 32 0 1 0-64 0V568.96l-86.4-76.544a32 32 0 1 0-42.432 47.872l139.648 123.712a32 32 0 0 0 34.368 5.248z"  horiz-adv-x="1024" />

    
    <glyph glyph-name="moreContent" unicode="&#58973;" d="M256 448a64 64 0 1 0 0-128 64 64 0 0 0 0 128z m256 0a64 64 0 1 0 0-128 64 64 0 0 0 0 128z m320-64a64 64 0 1 1-128 0 64 64 0 0 1 128 0z"  horiz-adv-x="1024" />

    
    <glyph glyph-name="leftmore" unicode="&#58974;" d="M214.741333 650.666667a32 32 0 0 0 32 32H770.56a32 32 0 0 0 0-64H246.784a32 32 0 0 0-32 32zM463.616 394.666667a32 32 0 0 0 32 32h282.069333a32 32 0 0 0 0-64h-282.026666a32 32 0 0 0-32 32zM214.741333 138.666667a32 32 0 0 0 32 32H770.56a32 32 0 0 0 0-64H246.784a32 32 0 0 0-32 32zM366.634667 405.504a12.8 12.8 0 0 0 0-21.674667l-133.717334-83.626666A12.8 12.8 0 0 0 213.333333 311.125333V478.293333a12.8 12.8 0 0 0 19.584 10.837334l133.717334-83.584z"  horiz-adv-x="1024" />

    
    <glyph glyph-name="fullScreen" unicode="&#58975;" d="M875.008 736a32 32 0 0 1-32 32h-239.786667a32 32 0 0 1 0-64h207.786667v-189.696a32 32 0 0 1 64 0V736z m-30.592-689.408a32 32 0 0 1 32 32v239.786667a32 32 0 0 1-64 0v-207.786667h-189.696a32 32 0 0 1 0-64h221.696zM128 728.704a32 32 0 0 0 32 32h221.696a32 32 0 1 0 0-64H192v-207.829333a32 32 0 0 0-64 0V728.704z m12.245333-657.408c0-17.664 14.336-32 32-32h239.829334a32 32 0 0 1 0 64h-207.786667v189.653333a32 32 0 0 1-64 0v-221.653333z"  horiz-adv-x="1024" />

    
    <glyph glyph-name="Sort_right" unicode="&#58977;" d="M397.056 91.584a32 32 0 0 0-18.88 29.184V640a32 32 0 0 0 64 0v-448.128l86.4 76.544a32 32 0 0 0 42.432-47.872l-139.584-123.712a32 32 0 0 0-34.368-5.248z"  horiz-adv-x="1024" />

    
    <glyph glyph-name="moment" unicode="&#58978;" d="M618.965333 706.901333s-104.704 44.373333-231.04-4.565333l231.04-235.562667V706.901333zM358.357333 688.64s-102.4-47.786667-157.013333-170.666667h327.68l-170.666667 170.666667zM647.424 695.509333v-328.874666l169.557333 162.730666c1.109333 1.109333-45.525333 111.530667-169.557333 166.144zM189.909333 489.514667s-45.525333-105.813333 3.413334-230.997334L426.666667 489.514667H189.909333zM376.576 69.589333v330.026667l-170.709333-169.557333s46.677333-105.813333 170.666666-160.426667zM661.077333 78.72s106.965333 42.112 161.578667 164.992H494.933333l166.144-164.992zM830.634667 507.733333L597.333333 272.170667h237.824c-1.152 0 44.373333 109.226667-4.565333 235.52zM403.882667 60.501333s108.117333-44.373333 234.410666 4.565334l-234.410666 233.258666v-237.824z"  horiz-adv-x="1024" />

    
    <glyph glyph-name="search1" unicode="&#58980;" d="M138.666667 469.333333a288 288 0 1 0 576 0 288 288 0 0 0-576 0zM426.666667 693.333333a224 224 0 1 1 0-448 224 224 0 0 1 0 448zM615.850667 319.658667a32 32 0 0 0 45.141333 3.157333l205.952-179.029333a32 32 0 0 0-41.984-48.298667l-205.952 179.029333a32 32 0 0 0-3.157333 45.141334z"  horiz-adv-x="1024" />

    
    <glyph glyph-name="check" unicode="&#58982;" d="M512 725.333333c-187.733333 0-341.333333-153.6-341.333333-341.333333s153.6-341.333333 341.333333-341.333333 341.333333 153.6 341.333333 341.333333-153.6 341.333333-341.333333 341.333333z m162.133333-277.333333l-170.666666-170.666667c-12.8-12.8-34.133333-12.8-46.933334 0L349.866667 384c-12.8 12.8-12.8 34.133333 0 46.933333 12.8 12.8 34.133333 12.8 46.933333 0l85.333333-85.333333 149.333334 149.333333c12.8 12.8 34.133333 12.8 46.933333 0 8.533333-17.066667 8.533333-34.133333-4.266667-46.933333z"  horiz-adv-x="1024" />

    
    <glyph glyph-name="screening" unicode="&#58983;" d="M776.533333 682.666667H251.733333c-29.866667 0-42.666667-34.133333-25.6-55.466667l187.733334-204.8v-238.933333c0-12.8 8.533333-25.6 21.333333-29.866667l132.266667-55.466667c21.333333-8.533333 46.933333 8.533333 46.933333 29.866667v294.4l183.466667 204.8c25.6 21.333333 8.533333 55.466667-21.333334 55.466667zM554.666667 448V170.666667l-72.533334 29.866666v243.2L320 618.666667h388.266667l-153.6-170.666667z"  horiz-adv-x="1024" />

    
    <glyph glyph-name="share1" unicode="&#58984;" d="M661.333333 320c-38.4 0-76.8-17.066667-98.133333-46.933333l-128 76.8c8.533333 17.066667 12.8 38.4 12.8 55.466666V426.666667l145.066667 85.333333c21.333333-12.8 46.933333-21.333333 72.533333-21.333333 72.533333 0 128 55.466667 128 128s-55.466667 128-128 128-128-55.466667-128-128c0-21.333333 4.266667-38.4 12.8-55.466667l-128-76.8c-25.6 29.866667-64 46.933333-102.4 46.933333-72.533333 0-128-55.466667-128-128s55.466667-128 128-128c25.6 0 51.2 8.533333 72.533333 21.333334l145.066667-85.333334v-21.333333c0-72.533333 55.466667-128 128-128s128 55.466667 128 128-59.733333 128-132.266667 128z m0 362.666667c34.133333 0 64-29.866667 64-64S695.466667 554.666667 661.333333 554.666667 597.333333 584.533333 597.333333 618.666667 627.2 682.666667 661.333333 682.666667z m-341.333333-341.333334c-34.133333 0-64 29.866667-64 64S285.866667 469.333333 320 469.333333s64-29.866667 64-64S354.133333 341.333333 320 341.333333z m341.333333-213.333333c-34.133333 0-64 29.866667-64 64s29.866667 64 64 64 64-29.866667 64-64-29.866667-64-64-64z"  horiz-adv-x="1024" />

    
    <glyph glyph-name="order_down" unicode="&#58979;" d="M998.4 678.4l-396.8-384c-51.2-51.2-128-51.2-179.2 0l-384 384C-25.6 729.6 0 768 64 768h896c64 0 89.6-38.4 38.4-89.6z"  horiz-adv-x="1025" />

    
    <glyph glyph-name="order_up" unicode="&#58981;" d="M27.23712 89.6l396.8 384c51.2 51.2 128 51.2 179.2 0l384-384c64-51.2 38.4-89.6-25.6-89.6h-896C1.63712 0-23.96288 38.4 27.23712 89.6z"  horiz-adv-x="1025" />

    
    <glyph glyph-name="slider" unicode="&#58927;" d="M166.4 576h145.066667c8.533333-55.466667 59.733333-98.133333 115.2-98.133333s106.666667 42.666667 115.2 93.866666h290.133333c17.066667 0 34.133333 12.8 34.133333 34.133334s-17.066667 34.133333-34.133333 34.133333h-294.4c-17.066667 42.666667-59.733333 76.8-110.933333 76.8S332.8 682.666667 315.733333 640H166.4c-17.066667 0-29.866667-12.8-29.866667-34.133333s12.8-29.866667 29.866667-29.866667zM426.666667 648.533333c29.866667 0 51.2-25.6 51.2-51.2s-21.333333-51.2-51.2-51.2S375.466667 567.466667 375.466667 597.333333s21.333333 51.2 51.2 51.2zM836.266667 192h-145.066667c-8.533333 55.466667-59.733333 98.133333-115.2 98.133333s-106.666667-42.666667-115.2-93.866666H170.666667c-17.066667 0-34.133333-12.8-34.133334-34.133334s17.066667-34.133333 34.133334-34.133333h294.4c17.066667-42.666667 59.733333-76.8 110.933333-76.8s93.866667 34.133333 110.933333 76.8h149.333334c17.066667 0 29.866667 12.8 29.866666 34.133333s-12.8 29.866667-29.866666 29.866667z m-260.266667-72.533333c-29.866667 0-51.2 25.6-51.2 51.2s21.333333 51.2 51.2 51.2 51.2-21.333333 51.2-51.2-21.333333-51.2-51.2-51.2z"  horiz-adv-x="1024" />

    
    <glyph glyph-name="notice" unicode="&#58976;" d="M596.608 689.493333a32 32 0 0 0 16.725333-28.16v-554.666666a32 32 0 0 0-49.450666-26.837334L358.528 213.333333H197.333333a32 32 0 0 0-32 32v277.333334a32 32 0 0 0 32 32h161.194667l205.354667 133.504a32 32 0 0 0 32.725333 1.28zM336 490.666667h-106.666667v-213.333334h106.666667v213.333334z m64-227.968l149.333333-97.066667V602.368l-149.333333-97.066667v-242.602666zM693.333333 550.4a32 32 0 0 0 11.690667 43.690667l73.941333 42.666666a32 32 0 0 0 32-55.424l-73.941333-42.666666A32 32 0 0 0 693.333333 550.4zM822.656 174.933333a32 32 0 0 0-43.690667-11.690666l-73.941333 42.666666a32 32 0 0 0 32 55.424l73.898667-42.666666a32 32 0 0 0 11.733333-43.690667zM709.333333 405.333333a32 32 0 0 0 32 32h85.333334a32 32 0 0 0 0-64h-85.333334a32 32 0 0 0-32 32z"  horiz-adv-x="1024" />

    
    <glyph glyph-name="trade" unicode="&#58967;" d="M452.949333 3.157333a32 32 0 0 0-38.570666-23.637333C231.765333 23.466667 96 187.861333 96 384c0 193.28 131.754667 355.669333 310.272 402.432a32 32 0 0 0 16.213333-61.866667 352.170667 352.170667 0 0 1 6.826667-682.794666 32 32 0 0 0 23.637333-38.613334zM512 768a32 32 0 0 0 32 32c229.76 0 416-186.24 416-416s-186.24-416-416-416a32 32 0 0 0 0 64c-22.442667-9.301333-31.829333-31.616-32-32V768z m64-734.549333a352.042667 352.042667 0 0 1 0 701.098666v-701.098666z"  horiz-adv-x="1024" />

    
    <glyph glyph-name="asset" unicode="&#58968;" d="M896 768H128c-25.6 0-42.666667-17.066667-42.666667-42.666667v-682.666666c0-25.6 17.066667-42.666667 42.666667-42.666667h768c25.6 0 42.666667 17.066667 42.666667 42.666667V725.333333c0 25.6-17.066667 42.666667-42.666667 42.666667z m-21.333333-490.666667H640c-59.733333 0-106.666667 46.933333-106.666667 106.666667s46.933333 106.666667 106.666667 106.666667h234.666667v-213.333334zM640 554.666667c-93.866667 0-170.666667-76.8-170.666667-170.666667s76.8-170.666667 170.666667-170.666667h234.666667v-149.333333h-725.333334v640h725.333334V554.666667H640zM682.666667 384m-42.666667 0a42.666667 42.666667 0 1 1 85.333333 0 42.666667 42.666667 0 1 1-85.333333 0Z"  horiz-adv-x="1024" />

    
    <glyph glyph-name="markets" unicode="&#58971;" d="M853.333333 597.333333h-192V768c0 25.6-17.066667 42.666667-42.666666 42.666667h-213.333334c-25.6 0-42.666667-17.066667-42.666666-42.666667v-256H170.666667c-25.6 0-42.666667-17.066667-42.666667-42.666667v-469.333333c0-25.6 17.066667-42.666667 42.666667-42.666667h682.666666c25.6 0 42.666667 17.066667 42.666667 42.666667V554.666667c0 25.6-17.066667 42.666667-42.666667 42.666666zM362.666667 21.333333h-170.666667v426.666667h170.666667v-426.666667z m234.666666 0h-170.666666v725.333334h170.666666v-725.333334z m234.666667 0h-170.666667v512h170.666667v-512z"  horiz-adv-x="1024" />

    
    <glyph glyph-name="home" unicode="&#58972;" d="M878.933333 503.466667l-341.333333 285.866666c-17.066667 12.8-38.4 12.8-55.466667 0l-341.333333-285.866666c-8.533333-8.533333-12.8-21.333333-12.8-34.133334v-469.333333c0-25.6 17.066667-42.666667 42.666667-42.666667h682.666666c25.6 0 42.666667 17.066667 42.666667 42.666667V469.333333c0 12.8-4.266667 25.6-17.066667 34.133334zM448 21.33333300000004v170.666667h128v-170.666667h-128z m384 0H640V213.33333300000004c0 25.6-17.066667 42.666667-42.666667 42.666667h-170.666666c-25.6 0-42.666667-17.066667-42.666667-42.666667v-192H192V460.8L512 725.333333l320-268.8v-435.2z"  horiz-adv-x="1024" />

    
    <glyph glyph-name="back" unicode="&#58965;" d="M856.064 424.96H299.008l217.088 217.088c16.384 16.384 16.384 40.96 0 57.344s-40.96 16.384-57.344 0l-286.72-286.72c-16.384-16.384-16.384-40.96 0-57.344l286.72-286.72c8.192-8.192 20.48-12.288 28.672-12.288s20.48 4.096 28.672 12.288c16.384 16.384 16.384 40.96 0 57.344l-217.088 217.088h557.056c24.576 0 40.96 16.384 40.96 40.96s-20.48 40.96-40.96 40.96z"  horiz-adv-x="1024" />

    
    <glyph glyph-name="search" unicode="&#58964;" d="M832 153.6l-153.6 153.6c29.866667 38.4 46.933333 89.6 46.933333 140.8 0 128-106.666667 234.666667-234.666666 234.666667S256 576 256 448 362.666667 213.333333 490.666667 213.333333c55.466667 0 102.4 17.066667 145.066666 46.933334l153.6-153.6c12.8-12.8 34.133333-12.8 46.933334 0 8.533333 12.8 8.533333 34.133333-4.266667 46.933333z m-341.333333 123.733333c-93.866667 0-170.666667 76.8-170.666667 170.666667s76.8 170.666667 170.666667 170.666667 170.666667-76.8 170.666666-170.666667-76.8-170.666667-170.666666-170.666667z"  horiz-adv-x="1024" />

    
    <glyph glyph-name="paste1" unicode="&#58963;" d="M597.504 671.744H266.752v-468.992h95.744v64h-31.744V607.744h266.752zM426.496 554.496v-469.504h384V554.496h-384z m320-404.992h-256V490.496h256v-340.992z"  horiz-adv-x="1024" />

    
    <glyph glyph-name="brief" unicode="&#58962;" d="M273.066667 89.6V665.6h320v-145.066667c0-29.866667 25.6-59.733333 59.733333-59.733333h145.066667V85.333333H273.066667v4.266667zM755.2 524.8h-106.666667V640l106.666667-115.2z m72.533333 8.533333l-149.333333 162.133334c-17.066667 17.066667-46.933333 29.866667-72.533333 29.866666H273.066667C238.933333 725.333333 213.333333 699.733333 213.333333 665.6V85.333333c0-29.866667 25.6-59.733333 59.733334-59.733333h524.8c34.133333 0 59.733333 25.6 59.733333 59.733333v375.466667c-4.266667 25.6-17.066667 55.466667-29.866667 72.533333zM648.533333 379.733333H418.133333c-17.066667 0-29.866667-12.8-29.866666-29.866666 0-17.066667 12.8-29.866667 29.866666-29.866667h234.666667c17.066667 0 29.866667 12.8 29.866667 29.866667-4.266667 17.066667-17.066667 29.866667-34.133334 29.866666z m0-145.066666H418.133333c-17.066667 0-29.866667-12.8-29.866666-29.866667 0-17.066667 12.8-29.866667 29.866666-29.866667h234.666667c17.066667 0 29.866667 12.8 29.866667 29.866667-4.266667 17.066667-17.066667 29.866667-34.133334 29.866667z"  horiz-adv-x="1024" />

    
    <glyph glyph-name="windows" unicode="&#58933;" d="M213.333333 400.853333h245.461334V641.450667L213.333333 612.394667v-211.541334z m280.362667 244.48v-244.48H810.666667V682.666667l-316.970667-37.333334zM213.333333 154.410667l245.461334-28.330667v239.872H213.333333v-211.541333z m280.362667-32.469334L810.666667 85.333333v280.362667h-316.970667v-243.754667z"  horiz-adv-x="1024" />

    
    <glyph glyph-name="weibo" unicode="&#58934;" d="M657.834667 393.898667a58.154667 58.154667 0 0 0-10.410667 5.205333c-2.56 1.706667-2.56 5.632 0 11.733333 5.205333 13.44 7.893333 25.770667 8.106667 37.034667a45.994667 45.994667 0 0 1-8.106667 28.586667c-10.410667 15.658667-28.842667 23.253333-55.296 22.784-26.453333-0.426667-56.362667-7.552-89.770667-21.461334l-9.386666-2.56c-6.314667-1.749333-8.149333 1.493333-5.546667 9.728 4.778667 16.896 6.698667 32 5.845333 45.226667-0.853333 13.226667-5.205333 23.936-13.013333 32.170667-9.088 9.130667-21.461333 13.781333-37.077333 13.994666-15.573333 0.213333-33.066667-3.584-52.352-11.392a325.12 325.12 0 0 1-61.141334-33.792 425.045333 425.045333 0 0 1-62.762666-53.333333c-14.506667-14.890667-28.074667-30.634667-40.618667-47.189333a340.053333 340.053333 0 0 1-30.293333-47.445334 249.386667 249.386667 0 0 1-18.858667-46.506666c-4.224-14.378667-6.4-29.269333-6.485333-44.245334 0-27.306667 7.808-52.266667 23.424-74.794666 15.616-22.528 36.224-41.728 61.781333-57.557334 25.6-15.829333 54.613333-28.16 87.168-37.077333 32.426667-8.874667 65.877333-13.354667 99.498667-13.312 44.245333 0 84.309333 6.272 120.32 18.816 36.010667 12.586667 66.901333 28.416 92.714666 47.488 25.770667 19.114667 45.696 40.021333 59.818667 62.762667 14.08 22.784 21.12 44.586667 21.12 65.408 0 24.704-8.448 44.373333-25.344 59.178666a145.237333 145.237333 0 0 1-53.333333 30.549334z m-214.613334-234.794667a281.6 281.6 0 0 0-76.8 2.56 227.157333 227.157333 0 0 0-64.682666 21.162667 138.709333 138.709333 0 0 0-45.866667 36.778666 91.050667 91.050667 0 0 0-20.181333 48.128c-1.706667 17.792 1.706667 34.986667 10.410666 51.712 8.704 16.682667 21.248 31.744 37.76 45.226667a215.68 215.68 0 0 0 59.178667 33.450667 299.306667 299.306667 0 0 0 74.794667 17.92c26.88 2.56 52.48 1.706667 76.757333-2.645334 24.277333-4.352 45.738667-11.477333 64.384-21.461333 18.602667-9.941333 33.792-22.186667 45.482667-36.693333a89.813333 89.813333 0 0 0 9.813333-100.224 142.506667 142.506667 0 0 0-37.418667-44.842667c-16.256-13.226667-35.84-24.405333-58.88-33.493333a272.981333 272.981333 0 0 0-74.794666-17.578667z m389.546667 323.882667c0 27.733333-5.162667 53.674667-15.573333 77.738666a205.226667 205.226667 0 0 1-42.666667 63.402667A197.546667 197.546667 0 0 1 633.173333 682.666667a22.613333 22.613333 0 0 1-16.64-6.826667 22.613333 22.613333 0 0 1-6.826666-16.64c0-6.442667 2.304-11.946667 6.826666-16.554667a22.613333 22.613333 0 0 1 16.64-6.826666c21.248 0 41.173333-4.010667 59.818667-12.032a154.709333 154.709333 0 0 0 81.621333-81.28c8.021333-18.432 12.032-38.272 12.032-59.52a22.613333 22.613333 0 0 1 6.826667-16.597334 22.613333 22.613333 0 0 1 16.597333-6.826666c6.485333 0 11.946667 2.261333 16.256 6.826666a23.125333 23.125333 0 0 1 6.485334 16.64z m-92.330667 3.242666a129.066667 129.066667 0 0 1-36.096 67.328 133.205333 133.205333 0 0 1-67.328 36.736 22.698667 22.698667 0 0 1-17.92-3.541333 23.125333 23.125333 0 0 1-6.485333-32.554667 23.04 23.04 0 0 1 14.634667-10.069333c16.682667-2.901333 32.042667-10.965333 43.946666-23.04 12.117333-11.946667 20.352-27.264 23.722667-43.946667 1.28-6.485333 4.650667-11.477333 10.069333-14.933333a22.186667 22.186667 0 0 1 17.237334-3.242667c6.528 1.28 11.52 4.650667 14.933333 10.069334a22.186667 22.186667 0 0 1 3.285333 17.237333zM387.925333 346.453333c-21.674667-4.309333-38.912-14.421333-51.712-30.208-12.8-15.829333-17.237333-32.853333-13.312-51.072 3.413333-17.792 14.08-31.573333 31.872-41.301333 17.792-9.770667 37.504-12.458667 59.178667-8.106667 21.674667 4.266667 38.912 14.378667 51.712 30.208 12.8 15.829333 17.450667 32.853333 13.952 51.072-3.84 17.749333-14.72 31.530667-32.512 41.301334-17.792 9.728-37.504 12.458667-59.178667 8.106666z"  horiz-adv-x="1024" />

    
    <glyph glyph-name="telegram" unicode="&#58935;" d="M442.837333 158.976l9.472 143.232 259.968 234.24c11.52 10.496-2.389333 15.573333-17.578666 6.4l-320.853334-202.752-138.837333 44.032c-29.781333 8.405333-30.122667 29.098667 6.826667 44.032L782.250667 636.586667c24.704 11.221333 48.426667-6.101333 38.954666-44.032L729.173333 158.976c-6.4-30.805333-25.088-38.272-50.773333-24.021333l-140.117333 103.594666-67.413334-65.28c-7.722667-7.850667-14.165333-14.293333-28.032-14.293333z"  horiz-adv-x="1024" />

    
    <glyph glyph-name="apple" unicode="&#58936;" d="M797.269333 175.872a413.056 413.056 0 0 0-40.874666-73.429333c-21.461333-30.634667-39.082667-51.84-52.608-63.573334-21.034667-19.370667-43.52-29.269333-67.626667-29.824-17.322667 0-38.186667 4.949333-62.464 14.933334-24.405333 9.941333-46.805333 14.848-67.285333 14.848-21.461333 0-44.501333-4.906667-69.12-14.848-24.704-9.984-44.586667-15.189333-59.776-15.701334-23.125333-0.981333-46.165333 9.173333-69.162667 30.549334-14.677333 12.8-33.066667 34.773333-55.04 65.877333-23.594667 33.194667-43.008 71.68-58.197333 115.626667C178.773333 267.648 170.666667 313.6 170.666667 358.058667c0 50.901333 11.008 94.805333 33.024 131.626666a193.834667 193.834667 0 0 0 69.205333 69.973334 186.154667 186.154667 0 0 0 93.568 26.453333c18.346667 0 42.453333-5.717333 72.362667-16.896 29.866667-11.178667 48.981333-16.853333 57.386666-16.853333 6.272 0 27.562667 6.613333 63.658667 19.882666 34.133333 12.245333 62.933333 17.365333 86.485333 15.36 63.957333-5.162667 111.957333-30.378667 143.914667-75.776-57.173333-34.645333-85.461333-83.157333-84.906667-145.408 0.512-48.469333 18.090667-88.832 52.693334-120.832 15.658667-14.890667 33.152-26.368 52.608-34.56a568.32 568.32 0 0 0-13.397334-35.2zM650.624 752.810667c0-37.973333-13.866667-73.472-41.557333-106.325334-33.365333-39.04-73.770667-61.610667-117.546667-58.026666a118.144 118.144 0 0 0-0.896 14.378666c0 36.48 15.872 75.52 44.074667 107.434667 14.08 16.170667 32 29.610667 53.717333 40.32 21.674667 10.581333 42.154667 16.426667 61.44 17.408 0.554667-5.12 0.768-10.154667 0.768-15.189333z"  horiz-adv-x="1024" />

    
    <glyph glyph-name="facebook" unicode="&#58938;" d="M268.8 85.333333h443.733333c30.506667 0 55.466667 24.96 55.466667 55.466667V584.533333c0 30.506667-24.96 55.466667-55.466667 55.466667H268.8C238.293333 640 213.333333 615.04 213.333333 584.533333v-443.733333c0-30.506667 24.96-55.466667 55.466667-55.466667z m271.786667 465.237334a117.76 117.76 0 0 0 45.738666 8.32h74.24V477.013333h-44.074666c-13.141333 0-21.461333-3.456-25.6-10.752-3.157333-4.821333-4.181333-13.141333-4.181334-24.618666v-37.077334h74.88l-9.045333-82.176h-66.218667V85.333333h-97.066666v237.098667h-47.488v82.176h47.530666v49.237333c0 50.602667 17.322667 82.858667 51.285334 96.725334z"  horiz-adv-x="1024" />

    
    <glyph glyph-name="android" unicode="&#58939;" d="M719.104 523.093333H304.469333c0 71.296 42.624 133.162667 105.813334 165.418667L378.453333 747.178667a6.528 6.528 0 0 0 2.218667 9.002666c3.114667 1.365333 7.210667 0.469333 9.002667-2.730666l32.256-59.136A221.738667 221.738667 0 0 0 512 713.173333c32.256 0 62.72-6.741333 90.154667-18.816l32.213333 59.136c1.792 3.157333 5.888 4.053333 8.96 2.730667a6.528 6.528 0 0 0 2.261333-8.96l-31.872-58.709333c62.805333-32.298667 105.386667-94.165333 105.386667-165.461334z m-86.229333 92.330667c0 14.506667-11.690667 26.88-26.197334 26.88a26.794667 26.794667 0 1 1 0-53.674667 26.624 26.624 0 0 1 26.154667 26.794667z m-188.8 0c0 14.506667-11.648 26.88-26.197334 26.88a26.794667 26.794667 0 1 1 0-53.674667 26.624 26.624 0 0 1 26.197334 26.794667zM196.394667 469.76a46.08 46.08 0 0 0 46.165333 45.738667c25.173333 0 45.696-20.693333 45.696-45.738667v-192.768c0-25.557333-20.138667-46.165333-45.653333-46.165333a46.08 46.08 0 0 0-46.208 46.165333V469.76zM717.781333 506.965333H306.261333v-298.538666c0-27.392 22.016-49.365333 49.28-49.365334h33.194667l0.426667-101.76c0-25.514667 20.650667-46.08 45.653333-46.08 25.6 0 46.293333 20.565333 46.293333 46.08v101.76h61.781334v-101.76a46.165333 46.165333 0 0 1 92.373333 0v101.76h33.706667c26.794667 0 48.810667 22.016 48.810666 49.365334V506.965333zM735.744 469.76c0 25.557333 20.565333 45.738667 45.653333 45.738667 25.6 0 46.165333-20.181333 46.208-45.738667v-192.768a45.952 45.952 0 1 0-91.904 0V469.76z"  horiz-adv-x="1024" />

    
    <glyph glyph-name="locked" unicode="&#58940;" d="M266.666667 480c0 45.824 5.248 106.88 36.949333 157.098667C337.066667 690.133333 396.288 725.333333 490.666667 725.333333c96.170667 0 154.794667-41.130667 187.434666-95.573333 31.104-51.797333 36.565333-112.042667 36.565334-149.76H725.333333a42.666667 42.666667 0 0 0 42.666667-42.666667v-341.333333a42.666667 42.666667 0 0 0-42.666667-42.666667H256a42.666667 42.666667 0 0 0-42.666667 42.666667v341.333333a42.666667 42.666667 0 0 0 42.666667 42.666667h10.666667z m64 0c0 43.093333 5.418667 88.661333 27.050666 122.88C377.6 634.368 414.378667 661.333333 490.666667 661.333333c74.496 0 111.872-29.994667 132.565333-64.426666 22.229333-37.12 27.434667-83.498667 27.434667-116.906667h-320z m-53.333334-362.666667v298.666667h426.666667v-298.666667h-426.666667z"  horiz-adv-x="1024" />

    
    <glyph glyph-name="favorite" unicode="&#58941;" d="M507.008 725.333333a32 32 0 0 0 29.056-18.602666l82.773333-179.456 196.266667-23.296a32 32 0 0 0 17.962667-55.253334l-145.066667-134.186666 38.485333-193.877334a32 32 0 0 0-47.018666-34.133333l-172.458667 96.554667-172.458667-96.554667a32 32 0 0 0-47.018666 34.133333l38.528 193.877334-145.109334 134.186666a32 32 0 0 0 17.92 55.253334l196.266667 23.296 82.773333 179.456A32 32 0 0 0 507.050667 725.333333z m0-108.373333l-61.226667-132.778667a32 32 0 0 0-25.301333-18.346666l-145.152-17.237334 107.306667-99.242666a32 32 0 0 0 9.685333-29.738667l-28.501333-143.36 127.573333 71.381333a32 32 0 0 0 31.232 0l127.573333-71.381333-28.501333 143.36a32 32 0 0 0 9.642667 29.738667l107.349333 99.242666-145.152 17.237334a32 32 0 0 0-25.301333 18.346666L507.008 616.96z"  horiz-adv-x="1024" />

    
    <glyph glyph-name="favorited" unicode="&#58942;" d="M507.008 725.333333a32 32 0 0 0 29.056-18.602666l82.773333-179.456 196.266667-23.296a32 32 0 0 0 17.962667-55.253334l-145.066667-134.186666 38.485333-193.877334a32 32 0 0 0-47.018666-34.133333l-172.458667 96.554667-172.458667-96.554667a32 32 0 0 0-47.018666 34.133333l38.528 193.877334-145.109334 134.186666a32 32 0 0 0 17.92 55.253334l196.266667 23.296 82.773333 179.456A32 32 0 0 0 507.050667 725.333333z"  horiz-adv-x="1024" />

    
    <glyph glyph-name="candels" unicode="&#58943;" d="M373.333333 746.666667v-74.666667H426.666667a32 32 0 0 0 32-32v-469.333333a32 32 0 0 0-32-32H373.333333V85.333333h-64v53.333334H256a32 32 0 0 0-32 32V640A32 32 0 0 0 256 672h53.333333V746.666667h64z m-85.333333-138.666667v-405.333333h106.666667v405.333333h-106.666667zM565.333333 597.333333a32 32 0 0 0 32 32h53.333334V746.666667h64v-117.333334H768a32 32 0 0 0 32-32v-298.666666a32 32 0 0 0-32-32h-53.333333v-117.333334h-64v117.333334H597.333333a32 32 0 0 0-32 32V597.333333z m64-32v-234.666666h106.666667v234.666666h-106.666667z"  horiz-adv-x="1024" />

    
    <glyph glyph-name="settings" unicode="&#58944;" d="M597.333333 34.13333299999999l-17.066666 21.333334c-29.866667 42.666667-102.4 42.666667-136.533334 0l-17.066666-17.066667-170.666667 98.133333 8.533333 25.6c8.533333 21.333333 4.266667 51.2-8.533333 72.533334-12.8 21.333333-34.133333 38.4-59.733333 42.666666l-25.6 8.533334V482.133333l25.6 4.266667c25.6 4.266667 46.933333 21.333333 59.733333 42.666667 12.8 25.6 17.066667 51.2 8.533333 76.8L256 631.4666669999999l170.666667 98.133333 17.066666-21.333333c34.133333-42.666667 102.4-42.666667 140.8 0l12.8 21.333333 170.666667-98.133333-8.533333-25.6c-8.533333-25.6-8.533333-55.466667 4.266666-76.8 12.8-21.333333 34.133333-38.4 59.733334-42.666667l29.866666-4.266667v-196.266666l-25.6-4.266667c-25.6-4.266667-46.933333-21.333333-59.733333-42.666667-12.8-21.333333-17.066667-51.2-8.533333-72.533333l8.533333-25.6-170.666667-106.666667z m-85.333333 119.466667c38.4 0 72.533333-12.8 102.4-38.4l81.066667 46.933333c-4.266667 34.133333 0 68.266667 17.066666 98.133334 17.066667 29.866667 42.666667 55.466667 76.8 68.266666V426.666667c-29.866667 12.8-59.733333 34.133333-76.8 64-21.333333 29.866667-25.6 68.266667-17.066666 106.666666l-81.066667 46.933334C558.933333 597.333333 469.333333 597.333333 413.866667 644.266667l-81.066667-42.666667c4.266667-34.133333 0-72.533333-17.066667-102.4s-42.666667-51.2-76.8-64v-98.133333c29.866667-12.8 59.733333-34.133333 76.8-64l4.266667-4.266667c17.066667-29.866667 21.333333-64 17.066667-98.133333l81.066666-46.933334c21.333333 17.066667 55.466667 29.866667 93.866667 29.866667zM512 247.46666700000003c-76.8 0-136.533333 64-136.533333 136.533333s64 136.533333 136.533333 136.533333 136.533333-64 136.533333-136.533333-59.733333-136.533333-136.533333-136.533333z m0 213.333333c-42.666667 0-76.8-34.133333-76.8-76.8s34.133333-76.8 76.8-76.8 76.8 34.133333 76.8 76.8-34.133333 76.8-76.8 76.8z"  horiz-adv-x="1024" />

    
    <glyph glyph-name="day" unicode="&#58945;" d="M544 640V768h-64v-128h64zM544 0v128h-64v-128h64zM512 213.33333300000004a170.666667 170.666667 0 1 1 0 341.333334 170.666667 170.666667 0 0 1 0-341.333334z m0 64a106.666667 106.666667 0 1 1 0 213.333334 106.666667 106.666667 0 0 1 0-213.333334zM896 352h-128v64h128v-64zM256 352H128v64h128v-64zM806.144 632.917333l-90.496-90.538666-45.226667 45.226666 90.453334 90.538667 45.269333-45.226667zM353.621333 180.35199999999998l-45.269333 45.226667-90.496-90.453334 45.226667-45.269333 90.538666 90.496zM760.917333 89.856l45.226667 45.226667-90.496 90.538666-45.226667-45.269333 90.453334-90.496zM308.352 542.378667L217.856 632.917333l45.226667 45.226667 90.538666-90.496-45.269333-45.226667z"  horiz-adv-x="1024" />

    
    <glyph glyph-name="night" unicode="&#58946;" d="M492.586667 707.882667a31.104 31.104 0 0 0 30.933333 17.322666 342.101333 342.101333 0 1 0-350.634667-467.541333 31.104 31.104 0 0 0 43.093334 39.253333A238.378667 238.378667 0 0 1 497.92 672.853333a31.104 31.104 0 0 0-5.376 34.986667z m100.138666-62.549334a300.586667 300.586667 0 0 0-323.669333-431.701333 279.893333 279.893333 0 1 1 323.669333 431.701333z"  horiz-adv-x="1024" />

    
    <glyph glyph-name="announcement" unicode="&#58947;" d="M612.608 678.826667a32 32 0 0 0 16.725333-28.16v-554.666667a32 32 0 0 0-49.450666-26.837333L374.528 202.66666699999996H213.333333a32 32 0 0 0-32 32V512A32 32 0 0 0 213.333333 544h161.194667l205.354667 133.504a32 32 0 0 0 32.725333 1.28zM352 480h-106.666667v-213.333333h106.666667v213.333333z m64-227.968l149.333333-97.066667V591.701333l-149.333333-97.066666v-242.602667zM682.666667 245.33333300000004c70.698667 0 128 59.733333 128 133.333334C810.666667 452.309333 753.365333 512 682.666667 512v-66.688c35.328 0 64-29.866667 64-66.645333 0-36.821333-28.672-66.688-64-66.688v-66.645334z"  horiz-adv-x="1024" />

    
    <glyph glyph-name="pin" unicode="&#58948;" d="M268.245333 666.88a32 32 0 0 0 32 32h417.536a32 32 0 0 0 0-64H654.08v-227.456l70.698667-66.432a32 32 0 0 0 10.069333-23.338667v-75.904a32 32 0 0 0-32-32H541.013333v-150.186666a32 32 0 0 0-64 0v150.186666H315.306667a32 32 0 0 0-32 32v75.946667a32 32 0 0 0 10.069333 23.296l70.656 66.432v227.413333H300.245333a32 32 0 0 0-32 32z m159.744-32v-241.28a32 32 0 0 0-10.069333-23.338667l-70.656-66.432v-30.08h323.541333v30.08l-70.656 66.432a32 32 0 0 0-10.112 23.338667V634.88h-162.048z"  horiz-adv-x="1024" />

    
    <glyph glyph-name="fullscreen" unicode="&#58949;" d="M213.333333 714.666667a32 32 0 0 1-32-32v-170.666667h64V605.44l137.386667-137.386667 45.226667 45.226667-137.386667 137.386667H384v64H213.333333zM213.333333 74.66666699999996a32 32 0 0 0-32 32v170.666666h64v-93.44l137.386667 137.386667 45.226667-45.226667-137.386667-137.386666H384v-64H213.333333zM821.333333 682.666667a32 32 0 0 1-32 32h-170.666666v-64h93.44l-137.386667-137.386667 45.226667-45.226667 137.386666 137.386667V512h64V682.666667zM789.333333 74.66666699999996a32 32 0 0 1 32 32v170.666666h-64v-93.44l-137.386666 137.386667-45.226667-45.226667 137.386667-137.386666H618.666667v-64h170.666666z"  horiz-adv-x="1024" />

    
    <glyph glyph-name="network" unicode="&#58950;" d="M853.333333 521.5146669999999l-59.861333-73.173334A454.869333 454.869333 0 0 1 512 545.4506670000001c-106.24 0-203.861333-36.352-281.472-97.109334L170.666667 521.5146669999999A548.949333 548.949333 0 0 0 512 640c128.938667 0 247.466667-44.373333 341.333333-118.485333z m-119.893333-146.56l-59.861333-73.173334a266.325333 266.325333 0 0 1-323.157334 0L290.56 374.954667a360.362667 360.362667 0 0 0 221.44 75.946666c83.498667 0 160.170667-28.501333 221.44-75.946666z m-119.722667-146.346667L512 104.36266699999999l-101.717333 124.330666a172.288 172.288 0 0 0 203.434666 0z"  horiz-adv-x="1024" />

    
    <glyph glyph-name="icon-test1" unicode="&#58952;" d="M922.656 699.2v-617.92l-162.304-56.192-37.12 22.464c-0.832 31.04-34.016 143.36-48.96 194.016a568.544 568.544 0 0 0-7.2 25.056c14.624 23.456 33.696 61.792 33.696 61.792s61.312-165.376 73.024-238.72l48.32 30.88V656.064l-51.136 31.872s-92.672-474.688-261.184-474.688c-37.152 0-70.336 23.04-99.52 59.008 7.456 23.392 13.184 36.288 24.96 58.976 23.296-37.952 48.448-62.432 74.56-61.792 112.32 2.816 213.44 460.64 213.44 460.64l36.512 22.464 162.912-53.344zM101.344 78.43200000000002V696.352l162.304 56.192 37.12-22.464c0.864-31.04 34.016-143.36 48.96-194.016 4.416-14.912 7.232-24.512 7.2-25.056-14.624-23.456-33.696-61.792-33.696-61.792s-61.312 165.376-73.024 238.72l-48.32-30.88v-535.488l51.104-31.904s92.704 474.688 261.248 474.688c37.12 0 70.304-23.04 99.456-58.976-7.424-23.392-13.12-36.288-24.96-58.976-23.264 37.952-48.416 62.432-74.496 61.76-112.352-2.784-213.472-460.608-213.472-460.608l-36.512-22.464-162.912 53.344z"  horiz-adv-x="1024" />

    
    <glyph glyph-name="twitter" unicode="&#58954;" d="M846.635 597.845a273.799 273.799 0 0 0-78.934-21.632 137.685 137.685 0 0 1 60.416 76.032 274.773 274.773 0 0 0-87.338-33.322 137.515 137.515 0 0 1-234.326-125.44A390.4 390.4 0 0 0 223.02 637.184 137.557 137.557 0 0 1 265.6 453.547a137.6 137.6 0 0 0-62.336 17.194v-1.706A137.557 137.557 0 0 1 313.6 334.20799999999997a136.363 136.363 0 0 0-62.123-2.39 137.515 137.515 0 0 1 128.427-95.487 275.84 275.84 0 0 0-170.752-58.88c-11.093 0-22.059 0.597-32.81 1.877a389.59 389.59 0 0 1 210.773-61.739c253.013 0 391.296 209.494 391.296 391.254 0 5.973-0.128 11.946-0.342 17.792a278.784 278.784 0 0 1 68.566 71.21z"  horiz-adv-x="1024" />

    
    <glyph glyph-name="intro" unicode="&#58937;" d="M552.96 240.64h-163.84c-12.288 0-20.48 8.192-20.48 20.48s8.192 20.48 20.48 20.48h163.84c12.288 0 20.48-8.192 20.48-20.48s-8.192-20.48-20.48-20.48zM552.96 343.03999999999996h-163.84c-12.288 0-20.48 8.192-20.48 20.48s8.192 20.48 20.48 20.48h163.84c12.288 0 20.48-8.192 20.48-20.48s-8.192-20.48-20.48-20.48zM552.96 445.44h-163.84c-12.288 0-20.48 8.192-20.48 20.48s8.192 20.48 20.48 20.48h163.84c12.288 0 20.48-8.192 20.48-20.48s-8.192-20.48-20.48-20.48zM614.4 568.3199999999999v-409.6H327.68V568.3199999999999h286.72m20.48 40.96h-327.68c-12.288 0-20.48-8.192-20.48-20.48v-450.56c0-12.288 8.192-20.48 20.48-20.48h327.68c12.288 0 20.48 8.192 20.48 20.48v450.56c0 12.288-8.192 20.48-20.48 20.48zM696.32 486.4v-327.68h-40.96v327.68h40.96m20.48 40.96h-81.92c-12.288 0-20.48-8.192-20.48-20.48v-368.64c0-12.288 8.192-20.48 20.48-20.48h81.92c12.288 0 20.48 8.192 20.48 20.48v368.64c0 12.288-8.192 20.48-20.48 20.48z"  horiz-adv-x="1024" />

    
    <glyph glyph-name="edit" unicode="&#58955;" d="M749.568 44.032H200.704c-16.384 0-32.768 12.288-32.768 32.768s12.288 32.768 32.768 32.768h552.96c16.384 0 32.768-12.288 32.768-32.768s-16.384-32.768-36.864-32.768zM225.28 175.104c-12.288 0-20.48 4.096-28.672 12.288-8.192 8.192-12.288 24.576-12.288 36.864l20.48 135.168c0 8.192 4.096 16.384 12.288 24.576L524.288 691.2c16.384 16.384 40.96 16.384 57.344 0l114.688-114.688c16.384-16.384 16.384-40.96 0-57.344L389.12 207.872c-8.192-8.192-16.384-12.288-24.576-12.288l-135.168-20.48H225.28z m36.864 167.936L249.856 240.64l98.304 16.384 290.816 290.816L552.96 633.856l-290.816-290.816zM598.016 429.056c-8.192 0-16.384 4.096-20.48 8.192L442.368 568.32c-12.288 12.288-12.288 32.768 0 45.056s32.768 12.288 45.056 0l131.072-131.072c12.288-12.288 12.288-32.768 0-45.056-8.192-8.192-12.288-8.192-20.48-8.192z"  horiz-adv-x="1024" />

    
    <glyph glyph-name="info_line" unicode="&#58956;" d="M512 42.666667c-187.733333 0-341.333333 153.6-341.333333 341.333333s153.6 341.333333 341.333333 341.333333 341.333333-153.6 341.333333-341.333333-153.6-341.333333-341.333333-341.333333z m0 618.666666c-153.6 0-277.333333-123.733333-277.333333-277.333333s123.733333-277.333333 277.333333-277.333333 277.333333 123.733333 277.333333 277.333333-123.733333 277.333333-277.333333 277.333333zM546.133333 200.533333c8.533333 4.266667 21.333333 8.533333 34.133334 12.8l4.266666 21.333334c-4.266667 0-8.533333-4.266667-12.8-4.266667-4.266667 0-12.8-4.266667-17.066666-4.266667-8.533333 0-17.066667 0-21.333334 4.266667-4.266667 4.266667-4.266667 8.533333-4.266666 17.066667v17.066666c0 8.533333 4.266667 12.8 4.266666 21.333334l17.066667 68.266666c0 8.533333 4.266667 12.8 4.266667 21.333334v17.066666c0 12.8-4.266667 25.6-12.8 34.133334-8.533333 8.533333-25.6 12.8-42.666667 12.8-8.533333 0-21.333333 0-29.866667-4.266667-12.8-4.266667-21.333333-8.533333-34.133333-12.8l-4.266667-21.333333c4.266667 0 8.533333 4.266667 12.8 4.266666 4.266667 0 8.533333 4.266667 17.066667 4.266667s17.066667 0 21.333333-4.266667c4.266667-4.266667 4.266667-8.533333 4.266667-17.066666v-17.066667c0-4.266667-4.266667-12.8-4.266667-21.333333l-17.066666-72.533334c0-8.533333-4.266667-12.8-4.266667-21.333333v-17.066667c0-12.8 4.266667-25.6 17.066667-34.133333 8.533333-8.533333 25.6-12.8 42.666666-12.8 8.533333 4.266667 17.066667 8.533333 25.6 8.533333zM554.666667 529.066667m-42.666667 0a42.666667 42.666667 0 1 1 85.333333 0 42.666667 42.666667 0 1 1-85.333333 0Z"  horiz-adv-x="1024" />

    
    <glyph glyph-name="appdownload" unicode="&#58957;" d="M512 138.24m-30.72 0a30.72 30.72 0 1 1 61.44 0 30.72 30.72 0 1 1-61.44 0ZM665.6 768H358.4c-56.32 0-102.4-46.08-102.4-102.4v-563.2c0-56.32 46.08-102.4 102.4-102.4h307.2c56.32 0 102.4 46.08 102.4 102.4v563.2c0 56.32-46.08 102.4-102.4 102.4z m40.96-665.6c0-20.48-20.48-40.96-40.96-40.96H358.4c-20.48 0-40.96 20.48-40.96 40.96v112.64h389.12v-112.64z m0 163.84H317.44V665.6c0 20.48 20.48 40.96 40.96 40.96h307.2c20.48 0 40.96-20.48 40.96-40.96v-399.36z"  horiz-adv-x="1024" />

    
    <glyph glyph-name="announce" unicode="&#58958;" d="M219.428571 530.285714m36.571429 0l0 0q36.571429 0 36.571429-36.571428l0-219.428572q0-36.571429-36.571429-36.571428l0 0q-36.571429 0-36.571429 36.571428l0 219.428572q0 36.571429 36.571429 36.571428ZM1055.597714 428.690286h-236.251428a41.325714 41.325714 0 1 1 0-82.578286h236.251428a41.325714 41.325714 0 1 1 0 82.651429z m-236.909714 142.336a39.789714 39.789714 0 0 1 20.48 5.778285l220.891429 127.049143a41.398857 41.398857 0 1 1-41.472 71.826286l-220.891429-127.122286a41.398857 41.398857 0 0 1-15.36-56.539428 43.446857 43.446857 0 0 1 36.352-20.992z m241.371429-499.419429l-220.891429 127.049143a41.398857 41.398857 0 1 1-41.545143-71.826286l220.964572-127.049143a39.789714 39.789714 0 0 1 20.48-5.705142 41.618286 41.618286 0 0 1 35.693714 20.992 40.228571 40.228571 0 0 1-14.628572 56.539428zM596.845714-128a121.197714 121.197714 0 0 0-55.296 13.604571l-2.925714 1.609143-268.653714 161.28a26.916571 26.916571 0 0 1-11.629715 2.779429H142.262857C63.853714 51.200000000000045 0 129.68228599999998 0 225.93828599999995V542.0617139999999c0 96.256 63.853714 174.665143 142.262857 174.665143h120.978286L538.770286 880.859429l2.706285 1.462857A119.296 119.296 0 0 0 661.942857 876.690286c47.469714-29.915429 77.019429-89.380571 77.019429-155.355429v-674.523428c0-65.974857-29.476571-125.44-77.019429-155.355429a121.344 121.344 0 0 0-65.097143-19.382857zM585.142857-28.37942899999996c8.777143-4.388571 19.017143-3.657143 27.062857 2.048 14.628571 9.289143 31.597714 33.938286 31.597715 73.142858V721.188571c0 39.131429-17.261714 63.853714-31.597715 73.142858a26.185143 26.185143 0 0 1-27.136 2.048L300.032 626.541714a46.665143 46.665143 0 0 0-23.771429-6.582857H142.262857c-22.454857 0-47.396571-32.256-47.396571-77.897143v-316.123428c0-45.860571 24.941714-77.897143 47.396571-77.897143h116.297143a119.588571 119.588571 0 0 0 58.075429-15.067429L585.142857-28.37942899999996z"  horiz-adv-x="1097" />

    
    <glyph glyph-name="download" unicode="&#58959;" d="M933.291154 530.5782859999999c0 161.645714-139.190857 292.717714-310.930285 292.717714-171.739429 0-310.930286-131.072-310.930286-292.717714-128.731429 0-233.179429-98.304-233.179429-219.574857 0-121.270857 104.374857-219.501714 233.179429-219.501715V18.285713999999984c-157.988571-0.219429-290.962286 111.177143-309.248 258.852572-18.285714 147.748571 83.968 284.818286 237.714286 318.829714C273.762011 769.755429 434.676297 896 622.360869 896c187.684571 0 348.598857-126.244571 382.464-300.032 153.161143-34.523429 254.756571-171.446857 236.544-318.756571-18.285714-147.236571-150.528-258.486857-308.077715-258.925715v73.142857c128.731429 0 233.179429 98.304 233.179429 219.574858 0 121.270857-104.374857 219.574857-233.179429 219.574857zM311.430583 91.42857100000003H389.18144V18.285713999999984H311.430583v73.142857z m544.182857 0h77.677714V18.285713999999984h-77.750857v73.142857zM669.684297-10.16685700000005V349.25714300000004c-0.219429 19.017143-21.430857 34.450286-47.762286 34.742857-26.331429 0-47.762286-16.091429-47.762285-34.742857v-359.424l-53.833143 38.985143a61.878857 61.878857 0 0 1-67.218286-0.219429c-8.996571-6.363429-14.116571-15.140571-14.189714-24.283428 0-9.142857 4.973714-17.92 13.897143-24.356572l135.606857-98.157714a57.344 57.344 0 0 1 33.645714-9.801143 54.857143 54.857143 0 0 1 33.353143 9.801143l135.606857 98.084571c18.285714 13.604571 18.139429 35.254857-0.292571 48.713143a57.270857 57.270857 0 0 1-33.572572 10.24 57.563429 57.563429 0 0 1-33.645714-10.020571l-53.833143-38.985143z"  horiz-adv-x="1243" />

    
    <glyph glyph-name="reddit" unicode="&#58960;" d="M779.96544 454.09792a74.27072 74.27072 0 0 1-52.08064-21.1968 366.12096 366.12096 0 0 1-200.77056 64.04096l34.18624 161.69984 111.68768-23.9104a54.02624 54.02624 0 0 1 15.05792-34.9696 53.47328 53.47328 0 0 1 70.72768-5.62176 53.95456 53.95456 0 0 1 20.34688 32.1536c2.6624 12.8512 0.56832 26.23488-5.888 37.64224a53.72416 53.72416 0 0 1-29.184 24.33024 53.41696 53.41696 0 0 1-37.90336-1.13152 53.74976 53.74976 0 0 1-27.69408-26.02496l-124.7744 26.69056a13.35296 13.35296 0 0 1-10.10176-1.85856 13.2096 13.2096 0 0 1-5.75488-8.48896s-37.48864-179.38944-37.48864-180.53632a366.85824 366.85824 0 0 1-204.3648-63.9488 74.9568 74.9568 0 0 1-27.70432 16.9728 74.69056 74.69056 0 0 1-63.0016-6.7584 75.17696 75.17696 0 0 1-23.51104-22.46656 75.72992 75.72992 0 0 1-9.8816-62.88384 75.51488 75.51488 0 0 1 15.47264-28.65664 75.07968 75.07968 0 0 1 26.07104-19.40992 152.30976 152.30976 0 0 1-1.74592-22.8608C211.6608 170.84928000000002 346.12736 76.79999999999995 511.98464 76.79999999999995s300.32384 94.04928 300.32384 210.10432a151.28576 151.28576 0 0 1-1.75104 22.66624 75.49952 75.49952 0 0 1 32.36864 27.90912 76.032 76.032 0 0 1 6.44608 69.99552 75.39712 75.39712 0 0 1-16.26624 24.51456 74.97216 74.97216 0 0 1-24.37632 16.37888 74.69056 74.69056 0 0 1-28.76416 5.7344z m-439.71072-129.30048c0 10.65472 3.14368 21.07904 9.0368 29.94176a53.69344 53.69344 0 0 0 24.06912 19.84512 53.39136 53.39136 0 0 0 30.99136 3.06688 53.54496 53.54496 0 0 0 27.46368-14.7456 53.99552 53.99552 0 0 0 14.67904-27.5968 54.144 54.144 0 0 0-3.05664-31.13984 53.82144 53.82144 0 0 0-19.75296-24.18176 53.43744 53.43744 0 0 0-29.7984-9.08288 53.59616 53.59616 0 0 0-37.89824 15.81056 54.1184 54.1184 0 0 0-15.73376 38.08256z m299.07968-142.35648c-36.63872-36.72064-106.83392-39.62368-127.34976-39.62368-20.51584 0-90.80832 2.90304-127.34976 39.62368a14.00832 14.00832 0 0 0 0.28672 19.47648 13.8752 13.8752 0 0 0 19.38432 0.2816c23.0656-23.17312 72.37632-31.44704 107.67872-31.44704s84.64384 8.27392 107.68384 31.44704a13.7728 13.7728 0 0 0 19.66592 0 14.16192 14.16192 0 0 0 0-19.75808z m-9.46688 88.46336c-10.60864 0-20.97664 3.15904-29.7984 9.08288a53.77536 53.77536 0 0 0-19.75296 24.18176 54.14912 54.14912 0 0 0-3.05664 31.13984 54.03136 54.03136 0 0 0 14.67904 27.5968 53.5552 53.5552 0 0 0 27.46368 14.7456 53.4016 53.4016 0 0 0 30.99136-3.06688 53.68832 53.68832 0 0 0 24.06912-19.84512 54.0928 54.0928 0 0 0 9.0368-29.94176 54.12864 54.12864 0 0 0-15.744-38.08768 53.57056 53.57056 0 0 0-37.9136-15.80544h0.0256z"  horiz-adv-x="1024" />

    
    <glyph glyph-name="Icon_Authentication" unicode="&#58961;" d="M512 187.733333c12.8 0 25.6 12.8 25.6 25.6 0 21.333333 17.066667 38.4 38.4 38.4h128c21.333333 0 38.4-17.066667 38.4-38.4 0-12.8 12.8-25.6 25.6-25.6s25.6 12.8 25.6 25.6c0 51.2-38.4 89.6-89.6 89.6h-128c-51.2 0-89.6-38.4-89.6-89.6 0-12.8 12.8-25.6 25.6-25.6zM640 341.333333c59.733333 0 106.666667 46.933333 106.666667 106.666667S699.733333 554.666667 640 554.666667s-106.666667-46.933333-106.666667-106.666667S580.266667 341.333333 640 341.333333z m0 162.133334c29.866667 0 55.466667-25.6 55.466667-55.466667 0-29.866667-25.6-55.466667-55.466667-55.466667s-55.466667 25.6-55.466667 55.466667c0 29.866667 25.6 55.466667 55.466667 55.466667zM281.6 358.4h162.133333c12.8 0 25.6 12.8 25.6 25.6s-12.8 25.6-25.6 25.6H281.6c-12.8 0-25.6-12.8-25.6-25.6s12.8-25.6 25.6-25.6zM281.6 264.533333h162.133333c12.8 0 25.6 12.8 25.6 25.6s-12.8 25.6-25.6 25.6H281.6c-12.8 0-25.6-12.8-25.6-25.6 0-17.066667 12.8-25.6 25.6-25.6zM281.6 456.533333h162.133333c12.8 0 25.6 12.8 25.6 25.6s-12.8 25.6-25.6 25.6H281.6c-12.8-4.266667-25.6-12.8-25.6-29.866666 0-12.8 12.8-21.333333 25.6-21.333334zM853.333333 682.666667H170.666667c-25.6 0-42.666667-17.066667-42.666667-42.666667v-512c0-25.6 17.066667-42.666667 42.666667-42.666667h682.666666c25.6 0 42.666667 17.066667 42.666667 42.666667V640c0 25.6-17.066667 42.666667-42.666667 42.666667z m-12.8-541.866667H183.466667V627.2h657.066666v-486.4z"  horiz-adv-x="1024" />

    
    <glyph glyph-name="dianhua" unicode="&#58889;" d="M164.573731 232.272343c-38.604226-44.807509-39.397289-108.264772-1.777483-141.713582l111.618147-99.276051 5.254677-4.114714c7.846712-5.411243 17.138332-8.764618 27.702945-10.241248 27.568892-3.845585 63.724347 5.321192 104.977913 25.445532 80.985476 39.620369 181.603081 121.54524 275.401374 230.392274 93.798293 108.812241 160.428829 220.990137 188.333366 307.789015 19.677155 61.108776 20.12434 109.673865-2.704598 135.610584l-4.719488 4.739954L757.06495 780.159692c-12.117992 10.777461-26.718525 17.127076-42.258453 19.296485-32.734542 4.560876-69.606311-9.43693-95.767134-39.822984l-70.498634-81.813331c-38.615483-44.787042-39.397289-108.24226-1.76725-141.692093l106.566084-94.782713c-24.194028-34.791387-51.583842-70.185502-81.790818-105.246019-30.231535-35.059494-61.131289-67.335594-91.898013-96.267531L373.096928 334.600917c-12.107759 10.755971-26.708292 17.105586-42.247196 19.273972-32.734542 4.583388-69.595055-9.435906-95.777367-39.799448L164.573731 232.272343 164.573731 232.272343zM708.0537 749.571023c6.417153-0.89437 11.917424-3.353374 16.34527-7.28901l11.984962-10.642384L590.040912 564.568519l-10.620895 9.435906c-9.592472 8.54256-10.890025 21.264303-10.799974 28.083615 0.200568 14.579043 6.461155 30.095435 17.194614 42.572608l70.52217 81.813331C670.490176 742.907253 690.792571 751.963513 708.0537 749.571023L708.0537 749.571023zM235.619834 94.851531l146.041144 166.892031 78.425164-70.478168 20.525476-19.183921 32.757055 30.810726c32.644491 30.766724 64.753793 64.440661 95.475492 100.048647 30.677697 35.618219 59.275012 72.421426 84.966137 109.360733l25.75764 37.071314-33.582863 29.871331-64.328098 56.615439 148.758022 168.992879 64.439638-60.794621 2.012843-2.035356c4.158716-5.969968 9.770528-30.92329-7.892761-85.837994-12.768815-39.71042-35.08303-86.329181-64.531735-134.849244-31.592532-52.008514-69.939909-104.307647-113.964588-155.432025-44.048215-51.114145-90.020246-96.637967-136.593981-135.318942-43.445488-36.08894-85.97307-64.707744-123.021871-82.820264-45.512566-22.225187-68.822458-22.091134-76.726475-20.972661-3.152806 0.447185-4.985548 1.11745-5.992481 1.653663l-2.246157 1.789763L235.619834 94.851531zM184.663278 156.519032c0.179079 14.57802 6.449899 30.096459 17.204847 42.573631l70.488401 81.83482c14.165628 16.424064 34.478256 25.479301 51.740408 23.064298 6.417153-0.89437 11.917424-3.330862 16.344247-7.28901l8.429996-7.489578L203.814454 121.593592l-8.363482 6.842849C185.859523 136.976954 184.574251 149.67823 184.663278 156.519032L184.663278 156.519032z"  horiz-adv-x="1024" />

    
    <glyph glyph-name="v" unicode="&#59034;" d="M700.43749973 732.74999973L323.56250027 732.74999973 90.125 457.12500027l421.875-461.25000027 421.875 461.25000027L700.43749973 732.74999973 700.43749973 732.74999973zM745.43750027 423.37500027L737.00000027 423.37500027c-11.24999973 0-11.24999973-2.81249973-16.875-8.4375C680.75 361.49999973 512 144.93750027 512 144.93750027c0 0 0 0 0 0l0 0c0 0-165.93750027 216.56250027-208.12500027 270-5.62500027 5.62500027-5.62500027 8.4375-16.875 8.4375L278.56249973 423.37500027c-5.62500027 0-8.4375 2.81249973-8.4375 8.4375l0 44.99999973c0 5.62500027 2.81249973 8.4375 8.4375 8.4375l84.375 0c5.62500027 0 11.24999973 0 16.875-8.4375l135-182.81250027 0 0c0 0 0 0 0 0l132.18750027 182.81250027c5.62500027 8.4375 11.24999973 8.4375 16.875 8.4375l84.375 0c5.62500027 0 8.4375-2.81249973 8.4375-8.4375l0-44.99999973C753.87500027 428.99999973 751.06249973 423.37500027 745.43750027 423.37500027L745.43750027 423.37500027zM745.43750027 423.37500027"  horiz-adv-x="1024" />

    
    <glyph glyph-name="loading" unicode="&#58901;" d="M128 384c0 211.2 172.8 384 384 384s384-172.8 384-384c0-38.4-25.6-64-64-64s-64 25.6-64 64c0 140.8-115.2 256-256 256S256 524.8 256 384s115.2-256 256-256c38.4 0 64-25.6 64-64s-25.6-64-64-64C300.8 0 128 172.79999999999995 128 384z"  horiz-adv-x="1024" />

    
    <glyph glyph-name="paypal" unicode="&#59550;" d="M834.89731881 541.12292827c-36.92938791-163.90814675-150.93095221-250.42277707-330.60948014-250.42277707l-59.79396879 0-41.55174102-263.86962247-50.05489324 1e-8-2.62015739-17.00630447c-1.70557414-11.27162041 6.94588889-21.332036 18.24222778-21.332036l127.91806053 0c15.15241954 0 27.95658483 10.97499882 30.42843141 25.95438908l1.23592328 6.47623806 24.10050416 152.78483714 1.55726336 8.33012297c2.32353579 14.97939027 15.30073034 25.95438909 30.4284314 25.9543891l19.0085002 0c123.88895062 0 220.93364737 50.37623331 249.35988305 195.89384151 10.65365876 55.31992646 6.64926729 102.26029303-17.59954766 137.1874852zM758.41838561 719.86215451c-36.60804786 41.72477028-102.90297315 59.64565799-187.53900006 59.64565799l-245.80042397 0c-17.30292607 0-32.13400554-12.50754369-34.75416292-29.66215897l-102.43332229-649.15634973c-2.00219573-12.82888375 7.8851906-24.42184421 20.86238513-24.42184423l151.87025391 0 38.1653112 241.77131404-1.23592329-7.56385054c2.62015738 17.15461526 17.30292607 29.66215897 34.60585213 29.66215896l72.15320168 0c141.66152753 0 252.59800207 57.47043299 285.0286292 224.0234556 0.9393017 4.94369317 1.85388493 9.73907554 2.47184659 14.36142863 9.56604627 61.47482446 0 103.52093479-33.36992885 141.36490594z"  horiz-adv-x="1024" />

    
    <glyph glyph-name="send" unicode="&#58885;" d="M331.91407274 384L215.76744867 93.63343978a21.11756801 21.11756801 0 0 1 4.66020405-22.77959884l0.32588839-0.32588838c6.28964603-5.9311688 15.47969877-7.49543309 23.30102026-3.94324959l656.07851745 298.18788171a21.08497917 21.08497917 0 0 1 0 38.45483064L244.02197254 701.41529703a21.11756801 21.11756801 0 0 1-28.28711272-27.04873681L331.91407274 384z m508.61401858 0L274.42735982 126.71111189999999l94.4750458 236.20390893h254.09518183a21.05239034 21.05239034 0 0 1 21.08497917 21.08497917 21.0198015 21.0198015 0 0 1-21.08497917 21.08497917H368.93499446L274.42735982 641.2888881 840.52809132 384z"  horiz-adv-x="1177" />

    
    <glyph glyph-name="kong" unicode="&#58880;" d="M1018.368 539.575c12.361-22.82-14.702 40.448-62.61 40.448l-741.23-0.293c-27.648 0-46.811-13.677-62.903-38.839C135.534 515.657 0 306.615 0 262.363v-284.086a80.457 80.457 0 0 1 80.677-80.165h1008.64a80.457 80.457 0 0 1 80.676 80.165V262.363c0 44.252-151.625 277.212-151.625 277.212s-21.723 40.448 0 0zM753.591 284.306a37.595 37.595 0 0 1-38.254-28.013c0-2.048 0.293-4.096 0.293-6.144a131.145 131.145 0 0 0-262.364 0c0 2.633 0.293 5.193 0.44 7.826-9.363 26.185-37.304 26.331-37.304 26.331H69.925l117.32 216.064s21.505 38.766 51.786 37.596h698.807c24.356 0 28.525-8.777 46.08-37.596l119.223-216.21H753.664zM332.434 693.614l-89.16 84.626a23.845 23.845 0 1 0 32.913 34.597l89.088-84.627a23.845 23.845 0 0 0-32.84-34.596m245.613 37.376a23.771 23.771 0 0 0-7.387 16.676l-3.219 122.88a23.845 23.845 0 0 0 47.763 1.244l3.145-122.88a23.845 23.845 0 0 0-40.229-17.92m231.132-32.988a23.845 23.845 0 0 0-0.878 33.72L893 820.954a23.845 23.845 0 0 0 34.597-32.914L842.97 698.88a23.845 23.845 0 0 0-33.718-0.878"  horiz-adv-x="1170" />

    
    <glyph glyph-name="addPicture" unicode="&#58951;" d="M784 784H240c-88 0-160-72-160-160v-480c0-88 72-160 160-160h544c88 0 160 72 160 160V624c0 88-72 160-160 160z m96-640c0-52.8-43.2-96-96-96H240c-52.8 0-96 43.2-96 96V624c0 52.8 43.2 96 96 96h544c52.8 0 96-43.2 96-96v-480zM352 416c52.8 0 96 43.2 96 96s-43.2 96-96 96-96-43.2-96-96 43.2-96 96-96z m0 128c17.6 0 32-14.4 32-32s-14.4-32-32-32-32 14.4-32 32 14.4 32 32 32z m462.4-379.2l-3.2 3.2-177.6 177.6c-25.6 25.6-65.6 25.6-91.2 0l-80-80-36.8 36.8c-25.6 25.6-65.6 25.6-91.2 0L200 168c-4.8-6.4-8-14.4-8-24 0-17.6 14.4-32 32-32 9.6 0 16 3.2 22.4 9.6L380.8 256l134.4-134.4c6.4-6.4 14.4-9.6 24-9.6 17.6 0 32 14.4 32 32 0 9.6-4.8 17.6-9.6 24l-52.8 52.8 80 80L769.6 120c6.4-4.8 12.8-8 20.8-8 17.6 0 32 14.4 32 32 0 8-3.2 16-8 20.8z"  horiz-adv-x="1024" />

    
    <glyph glyph-name="usdt" unicode="&#58953;" d="M576.512 474.112v-92.16H447.488v92.16c-131.9936-5.632-230.7072-28.672-230.7072-56.32 0-31.8464 131.3792-57.6512 293.5808-57.6512s293.4784 26.0096 293.4784 57.7536c0 27.5456-97.28 50.2784-227.328 56.2176zM512 896a512 512 0 1 1 512-512A512 512 0 0 1 512 896z m64.512-556.3392V87.04H447.488V339.6608C297.5744 346.5216 184.32 376.6272 184.32 412.7744s112.64 66.3552 262.9632 73.1136v76.1856H267.6736V680.96h488.6528v-118.8864H576.512V486.4c149.9136-7.2704 263.168-37.376 263.168-73.6256s-113.2544-66.2528-263.168-73.1136z"  horiz-adv-x="1024" />

    
    <glyph glyph-name="alarm" unicode="&#58881;" d="M810.666667 298.66666699999996a298.666667 298.666667 0 1 0-597.333334 0 298.666667 298.666667 0 0 0 597.333334 0z m-64 0a234.666667 234.666667 0 1 1-469.333334 0 234.666667 234.666667 0 0 1 469.333334 0zM512 458.666667a32 32 0 0 0 32-32v-133.76l84.48-82.645334a32 32 0 1 0-44.757333-45.738666l-94.08 92.032a32 32 0 0 0-9.642667 22.869333V426.666667a32 32 0 0 0 32 32z m-128 256a32 32 0 0 0 32 32h192a32 32 0 0 0 0-64h-192A32 32 0 0 0 384 714.666667z"  horiz-adv-x="1024" />

    
    <glyph glyph-name="arrowDown" unicode="&#58882;" d="M297.386667 470.613333a32 32 0 0 0 45.226666 0L512 301.226667l169.386667 169.386666a32 32 0 1 0 45.226666-45.226666l-192-192a32 32 0 0 0-45.226666 0l-192 192a32 32 0 0 0 0 45.226666z"  horiz-adv-x="1024" />

    
    <glyph glyph-name="close" unicode="&#58883;" d="M233.386667 662.613333a32 32 0 0 0 45.226666 0L512 429.226667l233.386667 233.386666a32 32 0 1 0 45.226666-45.226666L557.226667 384l233.386666-233.386667a32 32 0 1 0-45.226666-45.226666L512 338.773333l-233.386667-233.386666a32 32 0 0 0-45.226666 45.226666L466.773333 384 233.386667 617.386667a32 32 0 0 0 0 45.226666z"  horiz-adv-x="1024" />

    
    <glyph glyph-name="attachment" unicode="&#58884;" d="M502.869333 409.728c9.642667 10.154667 14.464 21.76 14.464 34.688a46.506667 46.506667 0 0 1-14.506666 33.92 46.421333 46.421333 0 0 1-33.877334 14.506667 50.346667 50.346667 0 0 1-34.645333-13.738667l-155.434667-155.52c-23.893333-25.386667-35.84-54.229333-35.84-86.528 0-32.256 11.946667-60.842667 35.84-85.76 24.874667-23.893333 53.589333-35.84 86.101334-35.84 32.469333 0 61.184 11.946667 86.058666 35.84l293.333334 292.736c23.893333 25.429333 35.84 54.272 35.84 86.528s-11.946667 61.098667-35.84 86.528c-24.874667 23.381333-53.589333 35.072-86.058667 35.072-32.512 0-61.226667-11.690667-86.101333-35.072l-8.405334-9.173333a37.376 37.376 0 0 0-26.282666-10.666667 34.218667 34.218667 0 0 0-25.514667 11.093333 35.669333 35.669333 0 0 0-10.666667 25.514667c0 9.642667 3.541333 18.304 10.666667 25.898667l8.362667 8.405333C560.469333 706.261333 606.464 725.333333 658.346667 725.333333c51.797333 0 97.749333-19.072 137.898666-57.173333C834.304 628.48 853.333333 582.784 853.333333 530.944c0-51.84-19.029333-98.090667-57.173333-138.752l-293.290667-292.693333c-40.106667-38.144-85.973333-57.088-137.514666-56.832-51.584 0.256-97.408 19.2-137.557334 56.789333C189.696 139.605333 170.666667 185.642667 170.666667 237.44c0 51.84 18.773333 97.834667 56.362666 137.984l155.434667 154.752c24.917333 23.893333 53.589333 35.84 86.101333 35.84 32.512 0 61.226667-11.946667 86.101334-35.84 23.893333-24.917333 35.84-53.504 35.84-85.76 0-32.256-11.946667-61.098667-35.84-86.528l-146.304-146.346667a36.949333 36.949333 0 0 0-25.898667-10.666666 35.029333 35.029333 0 0 0-25.514667 11.050666 35.072 35.072 0 0 0-11.050666 25.514667c0 9.642667 3.584 18.304 10.666666 25.941333l146.304 146.346667z"  horiz-adv-x="1024" />

    
    <glyph glyph-name="filter" unicode="&#58886;" d="M128 643.712C128 665.216 146.432 682.666667 169.130667 682.666667h685.738666c22.698667 0 41.130667-17.450667 41.130667-38.954667s-18.432-38.954667-41.130667-38.954667H169.130667c-22.698667 0-41.130667 17.450667-41.130667 38.954667zM292.565333 384c0 21.504 18.432 38.954667 41.130667 38.954667h356.608c22.698667 0 41.130667-17.450667 41.130667-38.954667s-18.432-38.954667-41.130667-38.954667H333.653333c-22.698667 0-41.130667 17.450667-41.130666 38.954667z m150.869334-220.757333c-22.741333 0-41.130667-17.450667-41.130667-38.954667s18.389333-38.954667 41.130667-38.954667h137.130666c22.741333 0 41.130667 17.450667 41.130667 38.954667s-18.389333 38.954667-41.130667 38.954667h-137.130666z"  horiz-adv-x="1024" />

    
    <glyph glyph-name="firstPage" unicode="&#58887;" d="M224 650.666667a32 32 0 0 0 64 0v-533.333334a32 32 0 0 0-64 0V650.666667z m489.386667 11.946666a32 32 0 1 0 45.226666-45.226666L525.226667 384l233.386666-233.386667a32 32 0 1 0-45.226666-45.226666l-256 256a32 32 0 0 0 0 45.226666l256 256z"  horiz-adv-x="1024" />

    
    <glyph glyph-name="fold" unicode="&#58888;" d="M213.333333 117.333333a32 32 0 0 0 32 32h576a32 32 0 0 0 0-64H245.333333a32 32 0 0 0-32 32zM552.149333 251.434667a32 32 0 0 0-37.632 0l-234.666666 170.666666a32 32 0 0 0 37.632 51.797334l183.850666-133.717334V682.666667a32 32 0 0 0 64 0v-342.485334l183.850667 133.717334a32 32 0 1 0 37.632-51.797334l-234.666667-170.666666z"  horiz-adv-x="1024" />

    
    <glyph glyph-name="lastPage" unicode="&#58890;" d="M768 650.666667a32 32 0 0 1-64 0v-533.333334a32 32 0 0 1 64 0V650.666667zM278.613333 662.613333a32 32 0 1 1-45.226666-45.226666L466.773333 384l-233.386666-233.386667a32 32 0 1 1 45.226666-45.226666l256 256a32 32 0 0 1 0 45.226666l-256 256z"  horiz-adv-x="1024" />

    
    <glyph glyph-name="hidden" unicode="&#58891;" d="M145.493333 496.170667a32 32 0 1 1-34.986666-53.674667L128 469.333333c-17.493333-26.837333-17.408-26.88-17.408-26.88h0.085333l0.170667-0.128 0.469333-0.298666a108.757333 108.757333 0 0 1 6.997334-4.181334c4.693333-2.645333 11.392-6.314667 20.224-10.581333 17.664-8.618667 43.605333-19.882667 77.909333-31.018667 13.141333-4.266667 27.477333-8.533333 43.050667-12.629333l-72.405334-103.765333a32 32 0 1 1 52.48-36.608l85.461334 122.453333a32.128 32.128 0 0 1 1.877333 2.986667c44.245333-8.021333 95.274667-13.994667 153.088-15.957334V213.33333300000004a32 32 0 0 1 64 0v138.88a1019.008 1019.008 0 0 1 159.573333 14.933334l80.896-116.053334a32 32 0 0 1 52.48 36.650667l-65.834666 94.378667c17.066667 4.608 32.554667 9.472 46.506666 14.336 32.128 11.264 55.936 22.656 72.106667 31.445333a280.746667 280.746667 0 0 1 24.832 15.36l0.469333 0.341333 0.170667 0.128 0.128 0.128A32 32 0 0 1 876.8 494.933333l-715.52-7.509333a273.834667 273.834667 0 0 0-15.061333 8.277333l-0.768 0.426667-2.133334-3.328h-0.042666l-3.669334-5.589333 5.845334 8.96z m0 0a3.328 3.328 0 0 0-0.128 0.042666h0.042667l0.042667-0.042666z m-5.888-8.96l-38.4-0.426667 38.4 0.426667z m0 0L128 469.333333l11.605333 17.834667z m21.674667 0.213333l-21.674667-0.213333 21.674667 0.213333z m715.434667 7.424l-0.469334-0.298667a217.557333 217.557333 0 0 0-17.237333-10.453333 422.101333 422.101333 0 0 0-62.549333-27.221333c-57.429333-20.138667-147.498667-40.874667-275.114667-40.874667-127.573333 0-222.592 20.736-285.098667 41.088a541.909333 541.909333 0 0 0-74.965333 30.293333l715.434667 7.466667z m0 0V494.933333z"  horiz-adv-x="1024" />

    
    <glyph glyph-name="moreAction" unicode="&#58892;" d="M576 640a64 64 0 1 0-128 0 64 64 0 0 0 128 0z m0-256a64 64 0 1 0-128 0 64 64 0 0 0 128 0zM512 64a64 64 0 1 1 0 128 64 64 0 0 1 0-128z"  horiz-adv-x="1024" />

    
    <glyph glyph-name="nextPage" unicode="&#58893;" d="M360.533333 63.573333a32 32 0 0 0 1.706667 45.226667l273.408 253.866667L362.24 616.533333a32 32 0 1 0 43.52 46.933334l298.666667-277.333334a32 32 0 0 0 0-46.933333l-298.666667-277.333333a32 32 0 0 0-45.226667 1.706666z"  horiz-adv-x="1024" />

    
    <glyph glyph-name="prevPage" unicode="&#58894;" d="M663.466667 661.76a32 32 0 0 0-1.706667-45.226667L388.352 362.666667l273.408-253.866667a32 32 0 1 0-43.52-46.933333l-298.666667 277.333333a32 32 0 0 0 0 46.933333l298.666667 277.333334a32 32 0 0 0 45.226667-1.706667z"  horiz-adv-x="1024" />

    
    <glyph glyph-name="Suspended" unicode="&#58895;" d="M512.128 725.333333a32 32 0 0 0 26.581333-14.848l352.298667-554.666666a32 32 0 0 0-27.008-49.152h-725.333333a32 32 0 0 0-26.538667 49.877333l372.992 554.666667a32 32 0 0 0 27.008 14.08zM198.741333 170.666667h607.018667l-294.826667 464.213333L198.741333 170.666667zM512 480a32 32 0 0 0 32-32V341.333333a32 32 0 0 0-64 0v106.666667a32 32 0 0 0 32 32z m32-221.610667a32 32 0 0 1-64 0V256a32 32 0 0 1 64 0v2.389333z"  horiz-adv-x="1024" />

    
    <glyph glyph-name="unfold" unicode="&#58896;" d="M213.333333 672a32 32 0 0 0 32 32h576a32 32 0 0 0 0-64H245.333333A32 32 0 0 0 213.333333 672zM514.517333 495.232a32 32 0 0 0 37.632 0l234.666667-170.666667a32 32 0 0 0-37.632-51.797333l-183.850667 133.717333V64a32 32 0 0 0-64 0v342.485333l-183.850666-133.717333a32 32 0 0 0-37.632 51.797333l234.666666 170.666667z"  horiz-adv-x="1024" />

    
    <glyph glyph-name="unhidden" unicode="&#58897;" d="M917.33333367 384.00000033c0-153.173333-181.461333-277.333333-405.333334-277.333334S106.66666667 230.82666632999997 106.66666667 384.00000033 288.12799967 661.33333333 511.99999967 661.33333333 917.33333367 537.17333333 917.33333367 384.00000033z m-64 0c0 49.28-29.141333 101.077333-90.88 143.274666C701.05599967 569.30133333 612.69333367 597.33333333 511.99999967 597.33333333c-100.693333 0-189.098667-28.032-250.453333-70.058667-61.738667-42.24-90.88-93.994667-90.88-143.274666 0-49.28 29.141333-101.077333 90.88-143.274667 61.354667-42.026667 149.76-70.058667 250.453333-70.058667 100.693333 0 189.056 28.032 250.453334 70.058667 61.738667 42.24 90.88 93.994667 90.88 143.274667zM511.99999967 256.00000033000003a128 128 0 1 0 0 256 128 128 0 0 0 0-256z m64 128a64 64 0 1 1-128 0 64 64 0 0 1 128 0z"  horiz-adv-x="1024" />

    
    <glyph glyph-name="arrowUp" unicode="&#58898;" d="M726.613333 233.386667a32 32 0 0 0-45.226666 0L512 402.773333l-169.386667-169.386666a32 32 0 0 0-45.226666 45.226666l192 192a32 32 0 0 0 45.226666 0l192-192a32 32 0 0 0 0-45.226666z"  horiz-adv-x="1024" />

    
    <glyph glyph-name="add" unicode="&#58899;" d="M512 778.026667a32 32 0 0 0 32-32v-330.026667h330.026667a32 32 0 0 0 0-64H544v-330.026667a32 32 0 0 0-64 0V352H149.973333a32 32 0 1 0 0 64h330.026667V746.026667a32 32 0 0 0 32 32z"  horiz-adv-x="1024" />

    
    <glyph glyph-name="arrowRight" unicode="&#58900;" d="M393.386667 137.386667a32 32 0 0 0 0 45.226666l169.386666 169.386667-169.386666 169.386667a32 32 0 0 0 45.226666 45.226666l192-192a32 32 0 0 0 0-45.226666l-192-192a32 32 0 0 0-45.226666 0z"  horiz-adv-x="1024" />

    
    <glyph glyph-name="arrowLeft" unicode="&#58902;" d="M630.613333 566.613333a32 32 0 0 0 0-45.226666l-169.386666-169.386667 169.386666-169.386667a32 32 0 1 0-45.226666-45.226666l-192 192a32 32 0 0 0 0 45.226666l192 192a32 32 0 0 0 45.226666 0z"  horiz-adv-x="1024" />

    
    <glyph glyph-name="checked" unicode="&#58903;" d="M170.666667 640a85.333333 85.333333 0 0 0 85.333333 85.333333h512a85.333333 85.333333 0 0 0 85.333333-85.333333v-512a85.333333 85.333333 0 0 0-85.333333-85.333333H256a85.333333 85.333333 0 0 0-85.333333 85.333333V640z m513.28-193.28a32 32 0 1 1-45.226667 45.226667l-148.053333-148.053334-84.053334 84.053334a32 32 0 0 1-45.226666-45.226667l106.666666-106.666667a32 32 0 0 1 45.226667 0l170.666667 170.666667z"  horiz-adv-x="1024" />

    
    <glyph glyph-name="cancelled1" unicode="&#58906;" d="M853.333333 384a341.333333 341.333333 0 1 0-682.666666 0 341.333333 341.333333 0 0 0 682.666666 0z m-58.496 0A282.837333 282.837333 0 1 1 229.12 384a282.837333 282.837333 0 0 1 565.674667 0zM430.805333 503.978667a27.434667 27.434667 0 0 1-38.784-38.826667L473.216 384l-81.194667-81.194667a27.434667 27.434667 0 1 1 38.826667-38.784L512 345.216l81.194667-81.194667a27.434667 27.434667 0 0 1 38.784 38.826667L550.784 384l81.194667 81.194667a27.434667 27.434667 0 1 1-38.826667 38.784L512 422.784l-81.194667 81.194667z"  horiz-adv-x="1024" />

    
    </font>
</defs>
</svg>
